<svg width="239" height="127" viewBox="0 0 239 127" fill="none" xmlns="http://www.w3.org/2000/svg">
<path d="M75.0245 64.544C73.2885 63.928 71.6085 63.032 69.9845 61.856C68.4165 60.68 67.2685 59.196 66.5405 57.404C65.6445 54.884 65.1965 51.916 65.1965 48.5C65.1965 45.196 65.3925 42.396 65.7845 40.1C66.1765 37.748 66.8485 35.368 67.8005 32.96L68.5565 31.196C69.4525 28.9 70.0965 27.388 70.4885 26.66C71.4405 24.476 73.1205 21.648 75.5285 18.176C77.7685 14.816 79.5326 12.324 80.8206 10.7C82.1645 9.02 83.5365 7.592 84.9365 6.416C86.3366 5.184 88.3806 3.644 91.0686 1.796C92.6926 0.619997 94.6805 0.0319982 97.0325 0.0319982C98.8806 0.0319982 100.561 0.479997 102.073 1.376C103.641 2.272 104.817 3.672 105.601 5.576C106.161 6.528 106.441 7.844 106.441 9.524C106.441 12.212 105.797 15.124 104.509 18.26C103.221 21.396 101.681 23.776 99.8886 25.4C99.4966 25.792 98.9646 25.988 98.2926 25.988C97.6206 25.988 96.8926 25.792 96.1086 25.4C95.3246 25.008 94.6246 24.532 94.0086 23.972C93.5046 23.02 93.2245 22.46 93.1685 22.292C93.1125 22.124 93.2245 22.012 93.5045 21.956C94.0085 21.34 94.7365 20.164 95.6885 18.428C96.6965 16.636 97.3685 15.236 97.7046 14.228L98.2085 11.876C98.5445 10.42 98.7126 9.468 98.7126 9.02C98.7126 8.516 98.5166 8.068 98.1246 7.676C97.9566 7.508 97.7326 7.424 97.4526 7.424C97.0046 7.424 96.2205 7.704 95.1005 8.264C93.8125 8.824 92.2725 9.972 90.4806 11.708C88.7445 13.388 87.0085 15.404 85.2726 17.756C82.6966 21.116 80.7085 23.888 79.3085 26.072C77.9645 28.256 76.9285 30.468 76.2005 32.708L75.2765 34.892C75.3325 35.116 75.2485 35.676 75.0245 36.572C74.8005 37.468 74.5485 38.196 74.2685 38.756C73.4845 42.004 73.0925 44.944 73.0925 47.576C73.0925 49.648 73.2885 51.44 73.6805 52.952C74.1285 54.464 74.7445 55.584 75.5285 56.312C75.9765 56.704 76.6205 56.9 77.4605 56.9C78.3565 56.9 79.3645 56.704 80.4845 56.312C81.6605 55.864 82.8925 55.36 84.1805 54.8C85.4685 54.24 86.3645 53.848 86.8685 53.624C88.1566 53.12 89.3606 52.532 90.4806 51.86C91.6566 51.188 92.5246 50.572 93.0846 50.012C94.5405 48.948 95.7165 48.416 96.6125 48.416C97.3406 48.192 97.9006 48.416 98.2926 49.088C98.7406 49.76 98.9646 50.684 98.9646 51.86C98.9646 52.644 98.4326 53.596 97.3685 54.716C96.3046 55.78 95.0446 56.732 93.5886 57.572C92.9726 58.188 91.6005 58.916 89.4725 59.756C87.6806 61.044 85.5806 62.192 83.1725 63.2C80.8206 64.208 78.6646 64.712 76.7045 64.712C76.2565 64.712 75.6965 64.656 75.0245 64.544ZM108.234 55.808C107.226 55.64 106.302 55.08 105.462 54.128C104.622 53.176 104.202 52.084 104.202 50.852C104.202 49.508 105.042 46.064 106.722 40.52C107.002 39.064 107.618 37.188 108.57 34.892C108.906 33.94 109.102 33.38 109.158 33.212C110.166 29.852 111.538 25.736 113.274 20.864L114.03 18.848C115.99 13.528 117.166 10.28 117.558 9.104L118.902 5.408C118.902 4.96 119.21 4.54 119.826 4.148C120.498 3.7 121.058 3.476 121.506 3.476C122.402 3.476 123.27 4.064 124.11 5.24C124.95 6.416 125.398 7.648 125.454 8.936C125.454 9.608 125.314 10.224 125.034 10.784C123.746 13.584 122.15 17.924 120.246 23.804C119.406 26.268 118.566 28.62 117.726 30.86C116.886 33.044 116.214 34.612 115.71 35.564L114.786 37.412L113.61 41.864C113.61 42.032 113.582 42.172 113.526 42.284C113.47 42.396 113.442 42.48 113.442 42.536C113.442 42.704 113.47 42.788 113.526 42.788L114.954 41.36C116.578 39.736 118.51 38.084 120.75 36.404C122.598 35.116 123.55 34.388 123.606 34.22C123.662 34.052 123.886 33.8 124.278 33.464L125.118 32.792C126.91 31.504 128.842 30.86 130.914 30.86C131.53 30.86 132.258 31.168 133.098 31.784C133.938 32.4 134.638 33.268 135.198 34.388C135.814 35.452 136.122 36.6 136.122 37.832V38.504V39.092C136.122 40.492 135.842 42.34 135.282 44.636C134.778 46.876 134.498 48.164 134.442 48.5C134.722 48.5 135.142 48.444 135.702 48.332C136.542 48.332 137.13 48.416 137.466 48.584C137.858 48.752 138.194 48.976 138.474 49.256C138.754 49.536 139.006 49.704 139.23 49.76C139.342 49.872 139.398 50.04 139.398 50.264C139.398 51.552 138.698 52.672 137.298 53.624C135.898 54.576 134.554 55.108 133.266 55.22C131.698 55.22 130.438 54.632 129.486 53.456C128.534 52.28 128.058 50.852 128.058 49.172C128.058 48.5 128.086 47.828 128.142 47.156C128.198 46.484 128.254 45.896 128.31 45.392C128.478 44.272 128.562 43.376 128.562 42.704C128.562 41.976 128.478 41.5 128.31 41.276C128.198 40.996 127.974 40.856 127.638 40.856C126.518 40.856 124.558 41.892 121.758 43.964C119.014 45.98 116.214 48.612 113.358 51.86C111.566 54.492 109.858 55.808 108.234 55.808ZM155.227 59C152.035 59 149.459 58.104 147.499 56.312C145.539 54.52 144.559 51.972 144.559 48.668C144.559 47.38 144.643 45.952 144.811 44.384C144.923 43.04 145.455 41.192 146.407 38.84C147.415 36.488 148.759 34.192 150.439 31.952C152.175 29.712 154.191 28.06 156.487 26.996C157.551 26.492 158.447 26.156 159.175 25.988C159.903 25.764 160.743 25.652 161.695 25.652C163.991 25.652 165.839 26.072 167.239 26.912C168.695 27.752 169.703 28.704 170.263 29.768C170.879 30.832 171.187 31.756 171.187 32.54V32.96V33.212C171.187 33.884 170.795 35.116 170.011 36.908C169.227 38.7 167.967 40.38 166.231 41.948C164.551 43.516 162.367 44.384 159.679 44.552C158.335 44.552 157.019 44.44 155.731 44.216C154.499 43.936 153.715 43.796 153.379 43.796C152.539 43.796 152.007 44.104 151.783 44.72C151.559 45.336 151.447 46.372 151.447 47.828C151.615 49.396 152.035 50.488 152.707 51.104C153.435 51.72 154.471 52.028 155.815 52.028C156.487 52.028 157.271 51.832 158.167 51.44C159.063 50.992 160.127 50.292 161.359 49.34C162.031 48.78 162.563 48.388 162.955 48.164C163.347 47.94 163.823 47.828 164.383 47.828C164.887 47.828 165.475 48.164 166.147 48.836C166.819 49.508 167.183 50.152 167.239 50.768C167.127 51.44 166.511 52.448 165.391 53.792C164.271 55.136 162.815 56.34 161.023 57.404C159.231 58.468 157.299 59 155.227 59ZM158.167 38.756C159.231 38.756 159.959 38.644 160.351 38.42C160.911 38.14 161.751 37.44 162.871 36.32C164.047 35.144 164.663 34.332 164.719 33.884C164.719 33.324 164.467 32.876 163.963 32.54C163.515 32.148 162.871 31.896 162.031 31.784H161.107C160.379 31.784 159.315 32.4 157.915 33.632C156.571 34.808 155.395 36.18 154.387 37.748C154.443 38.028 154.863 38.28 155.647 38.504C156.431 38.672 157.271 38.756 158.167 38.756ZM177.048 69.164C176.712 69.388 175.928 69.108 174.696 68.324C173.52 67.596 172.54 66.784 171.756 65.888C171.42 65.552 171.196 65.216 171.084 64.88C170.972 64.6 170.916 64.208 170.916 63.704L171.084 61.604C171.364 60.764 171.504 59.784 171.504 58.664C171.504 58.216 171.7 56.816 172.092 54.464C172.484 52.056 172.792 50.32 173.016 49.256L173.268 48.248C173.716 46.4 174.052 44.692 174.276 43.124C174.724 41.724 175.088 40.352 175.368 39.008C175.704 37.608 175.872 36.656 175.872 36.152C175.872 35.144 176.264 34.416 177.048 33.968C177.104 33.52 177.524 32.596 178.308 31.196C179.652 27.388 180.632 24.672 181.248 23.048C181.92 21.368 182.62 19.912 183.348 18.68C184.356 15.88 185.168 14.116 185.784 13.388C186.176 12.436 187.24 11.036 188.976 9.188C190.712 7.34 192.252 5.856 193.596 4.736C196.396 3.28 198.748 2.552 200.652 2.552C202.276 2.552 204.152 3.56 206.28 5.576C207.064 6.416 207.512 6.976 207.624 7.256C207.736 7.536 207.792 8.068 207.792 8.852C207.568 9.916 206.588 11.792 204.852 14.48C203.116 17.168 202.024 18.54 201.576 18.596C200.904 18.82 200.456 18.932 200.232 18.932C199.728 18.932 199.308 18.764 198.972 18.428C198.636 18.092 198.468 17.588 198.468 16.916C198.468 15.852 198.804 14.62 199.476 13.22C200.148 12.324 200.484 11.54 200.484 10.868C200.484 9.916 199.728 9.44 198.216 9.44C197.768 9.664 196.872 10.476 195.528 11.876C194.24 13.22 193.596 14.06 193.596 14.396C193.54 14.508 193.372 14.816 193.092 15.32C192.868 15.768 192.504 16.3 192 16.916C190.992 18.316 190.488 19.184 190.488 19.52C190.488 20.248 190.32 20.612 189.984 20.612C189.928 20.724 189.788 21.06 189.564 21.62C189.396 22.124 189.144 22.684 188.808 23.3C188.584 23.804 188.304 24.364 187.968 24.98C187.632 25.596 187.352 26.016 187.128 26.24H187.212C187.044 26.632 186.736 27.388 186.288 28.508C185.84 29.572 185.616 30.188 185.616 30.356C185.616 30.58 185.952 30.692 186.624 30.692C187.856 30.692 189.592 30.384 191.832 29.768C192.56 29.544 193.092 29.432 193.428 29.432C193.82 29.432 194.38 29.544 195.108 29.768C195.724 30.16 196.228 31.028 196.62 32.372C197.012 33.716 197.096 34.556 196.872 34.892C196.816 35.116 196.2 35.424 195.024 35.816C193.904 36.208 192.728 36.516 191.496 36.74L188.052 37.496C184.86 38.168 183.264 38.616 183.264 38.84C183.04 38.84 182.844 38.952 182.676 39.176C182.508 39.4 182.424 39.624 182.424 39.848C182.424 40.632 182.312 41.22 182.088 41.612C181.808 42.396 181.332 44.272 180.66 47.24C180.044 50.208 179.736 52.028 179.736 52.7C179.288 53.26 179.064 54.268 179.064 55.724C178.728 56.34 178.56 57.04 178.56 57.824C178.56 58.16 178.532 58.44 178.476 58.664C178.476 58.944 178.42 59.616 178.308 60.68C178.196 61.744 178.14 62.724 178.14 63.62L177.888 66.056C177.832 66.728 177.748 67.344 177.636 67.904C177.524 68.464 177.328 68.884 177.048 69.164ZM2.84469 126.14C0.996691 125.188 0.0726911 123.676 0.0726911 121.604C0.0726911 120.708 0.268691 119.532 0.660691 118.076C1.16469 116.116 1.83669 114.24 2.67669 112.448C3.12469 111.384 3.57269 110.208 4.02069 108.92C4.46869 107.632 4.83269 106.232 5.11269 104.72C6.23269 102.144 7.21269 99.652 8.05269 97.244C8.94869 94.78 9.50869 93.212 9.73269 92.54C9.78869 92.148 10.7127 90.02 12.5047 86.156L13.9327 83.132C15.2767 79.38 16.5087 76.356 17.6287 74.06C18.8047 71.764 20.2607 69.3 21.9967 66.668C22.8927 65.212 24.2367 64.484 26.0287 64.484C27.0927 64.484 28.0447 64.736 28.8847 65.24C29.7247 65.744 30.2847 66.444 30.5647 67.34C31.0687 68.516 31.4327 69.804 31.6567 71.204C31.9367 72.604 32.1327 75.096 32.2447 78.68C32.3007 79.8 32.3287 81.424 32.3287 83.552C32.4407 88.256 32.5807 91.84 32.7487 94.304C32.9167 96.712 33.2807 98.924 33.8407 100.94C34.1767 103.18 34.3727 104.664 34.4287 105.392C34.7647 108.024 35.0727 110.068 35.3527 111.524C35.6327 112.98 35.9127 113.708 36.1927 113.708C36.8647 113.708 37.7887 112.14 38.9647 109.004C40.1967 105.868 42.0167 99.4 44.4247 89.6C44.7607 88.48 45.1527 86.856 45.6007 84.728C46.0487 82.6 46.3847 80.528 46.6087 78.512C47.2247 76.216 47.8127 73.836 48.3727 71.372C48.9887 68.852 49.2967 67.48 49.2967 67.256C49.2967 66.976 49.2967 66.696 49.2967 66.416C49.3527 66.136 49.3527 65.8 49.2967 65.408C49.5207 65.408 49.7447 65.044 49.9687 64.316C50.2487 63.588 50.3887 62.916 50.3887 62.3C50.3887 60.676 50.7807 59.472 51.5647 58.688C52.1807 57.568 53.0767 57.008 54.2527 57.008C55.1487 57.008 55.9887 57.316 56.7727 57.932C57.5567 58.492 58.0327 59.164 58.2007 59.948C58.3687 61.124 57.5847 65.408 55.8487 72.8C55.8487 73.472 55.4567 75.488 54.6727 78.848C54.1687 80.752 53.7767 82.572 53.4967 84.308C53.2727 85.932 52.9927 87.332 52.6567 88.508C52.3767 89.684 52.1247 90.244 51.9007 90.188C49.6047 100.044 46.6647 109.06 43.0807 117.236C42.2407 119.196 41.2327 120.708 40.0567 121.772C38.8807 122.892 37.6487 123.452 36.3607 123.452C34.7927 123.452 33.3647 122.64 32.0767 121.016C30.3967 118.832 29.1647 116.62 28.3807 114.38C27.5967 112.084 26.9527 108.808 26.4487 104.552C25.4407 98.336 24.9367 92.064 24.9367 85.736V83.048C24.9927 79.128 24.7407 77.168 24.1807 77.168C23.8447 77.168 23.4527 77.672 23.0047 78.68C22.5567 79.688 21.9967 81.172 21.3247 83.132C21.0447 84.028 19.7847 87.332 17.5447 93.044L16.1167 96.74C15.1087 98.756 14.3527 100.8 13.8487 102.872C12.1127 107.352 10.7407 111.328 9.73269 114.8C8.78069 118.272 8.24869 120.232 8.13669 120.68C7.96869 121.296 7.80069 121.884 7.63269 122.444C7.52069 123.004 7.38069 123.508 7.21269 123.956C6.76469 125.132 6.40069 125.916 6.12069 126.308C5.84069 126.756 5.47669 126.98 5.02869 126.98C4.46869 126.98 3.74069 126.7 2.84469 126.14ZM65.3148 119C62.1228 119 59.5468 118.104 57.5868 116.312C55.6268 114.52 54.6468 111.972 54.6468 108.668C54.6468 107.38 54.7308 105.952 54.8988 104.384C55.0108 103.04 55.5428 101.192 56.4948 98.84C57.5028 96.488 58.8468 94.192 60.5268 91.952C62.2628 89.712 64.2788 88.06 66.5748 86.996C67.6388 86.492 68.5348 86.156 69.2628 85.988C69.9908 85.764 70.8308 85.652 71.7828 85.652C74.0788 85.652 75.9268 86.072 77.3268 86.912C78.7828 87.752 79.7908 88.704 80.3508 89.768C80.9668 90.832 81.2748 91.756 81.2748 92.54V92.96V93.212C81.2748 93.884 80.8828 95.116 80.0988 96.908C79.3148 98.7 78.0548 100.38 76.3188 101.948C74.6388 103.516 72.4548 104.384 69.7668 104.552C68.4228 104.552 67.1068 104.44 65.8188 104.216C64.5868 103.936 63.8028 103.796 63.4668 103.796C62.6268 103.796 62.0948 104.104 61.8708 104.72C61.6468 105.336 61.5348 106.372 61.5348 107.828C61.7028 109.396 62.1228 110.488 62.7948 111.104C63.5228 111.72 64.5588 112.028 65.9028 112.028C66.5748 112.028 67.3588 111.832 68.2548 111.44C69.1508 110.992 70.2148 110.292 71.4468 109.34C72.1188 108.78 72.6508 108.388 73.0428 108.164C73.4348 107.94 73.9108 107.828 74.4708 107.828C74.9748 107.828 75.5628 108.164 76.2348 108.836C76.9068 109.508 77.2708 110.152 77.3268 110.768C77.2148 111.44 76.5988 112.448 75.4788 113.792C74.3588 115.136 72.9028 116.34 71.1108 117.404C69.3188 118.468 67.3868 119 65.3148 119ZM68.2548 98.756C69.3188 98.756 70.0468 98.644 70.4388 98.42C70.9988 98.14 71.8388 97.44 72.9588 96.32C74.1348 95.144 74.7508 94.332 74.8068 93.884C74.8068 93.324 74.5548 92.876 74.0508 92.54C73.6028 92.148 72.9588 91.896 72.1188 91.784H71.1948C70.4668 91.784 69.4028 92.4 68.0028 93.632C66.6588 94.808 65.4828 96.18 64.4748 97.748C64.5308 98.028 64.9508 98.28 65.7348 98.504C66.5188 98.672 67.3588 98.756 68.2548 98.756ZM84.7835 116.732C83.9995 116.116 83.3835 115.528 82.9355 114.968C82.4875 114.408 82.3475 113.624 82.5155 112.616C82.6835 110.712 83.1035 108.5 83.7755 105.98L84.1955 104.3C84.3635 102.788 85.2315 99.82 86.7995 95.396C88.4235 90.916 89.7675 87.892 90.8315 86.324C91.3915 85.764 92.3435 85.484 93.6875 85.484C94.8075 85.484 95.5915 85.708 96.0395 86.156C96.4875 86.492 96.7115 87.052 96.7115 87.836C96.7115 89.124 95.8995 91.392 94.2755 94.64L93.4355 96.404C93.0435 97.132 92.7075 97.804 92.4275 98.42C92.2035 99.036 92.2315 99.316 92.5115 99.26C93.1275 98.196 94.6115 96.74 96.9635 94.892C99.3715 93.044 101.024 91.896 101.92 91.448C102.312 91.224 102.816 91 103.432 90.776C104.048 90.552 104.468 90.384 104.692 90.272C105.7 89.768 106.848 89.516 108.136 89.516C109.032 89.516 109.788 89.656 110.404 89.936C111.076 90.16 111.524 90.524 111.748 91.028C111.804 91.42 111.944 91.728 112.168 91.952C112.448 92.176 112.644 92.316 112.756 92.372C112.924 92.372 113.036 92.456 113.092 92.624C113.148 92.736 113.176 92.82 113.176 92.876C113.176 93.324 112.784 93.912 112 94.64C111.216 95.312 110.404 95.676 109.564 95.732C108.948 95.788 108.304 95.928 107.632 96.152C106.96 96.376 106.288 96.656 105.616 96.992L103.432 98.252C101.528 99.204 99.9035 100.156 98.5595 101.108C97.2715 102.004 95.9555 103.18 94.6115 104.636C94.3315 104.916 93.9115 105.308 93.3515 105.812C92.8475 106.316 92.3995 106.904 92.0075 107.576C91.6155 107.968 91.1955 109.004 90.7475 110.684C90.3555 112.308 90.1595 113.316 90.1595 113.708C90.1035 113.876 89.9915 114.212 89.8235 114.716C89.6555 115.22 89.4035 115.668 89.0675 116.06C88.5635 116.676 88.1435 117.124 87.8075 117.404C87.4715 117.684 87.1075 117.824 86.7155 117.824C86.1555 117.824 85.5115 117.46 84.7835 116.732ZM121.884 114.548C121.268 114.1 120.428 112.196 119.364 108.836C118.3 105.476 117.544 102.34 117.096 99.428C116.872 98.252 116.424 96.656 115.752 94.64C115.64 94.192 115.584 93.828 115.584 93.548C115.584 92.708 115.808 91.868 116.256 91.028C116.704 90.132 117.208 89.516 117.768 89.18C117.992 89.012 118.468 88.9 119.196 88.844C119.98 88.732 120.512 88.704 120.792 88.76C122.024 89.208 123.144 92.624 124.152 99.008C124.376 100.744 124.544 102.004 124.656 102.788C124.824 103.572 124.908 104.104 124.908 104.384C125.02 104.72 125.132 105.112 125.244 105.56C125.356 106.008 125.468 106.316 125.58 106.484C125.692 106.652 125.888 106.596 126.168 106.316C126.784 105.7 127.708 104.58 128.94 102.956C129.556 102.172 130.48 100.884 131.712 99.092L134.148 95.816C134.82 94.92 135.716 93.94 136.836 92.876C137.956 91.812 138.824 91.196 139.44 91.028C140.224 90.916 140.84 91.084 141.288 91.532C141.792 91.924 142.044 92.484 142.044 93.212C142.044 94.276 141.596 95.424 140.7 96.656C140.364 97.104 140 97.72 139.608 98.504C139.272 99.232 139.048 99.652 138.936 99.764C138.32 100.996 137.172 102.732 135.492 104.972C133.868 107.212 132.776 108.612 132.216 109.172C132.104 109.284 131.628 109.676 130.788 110.348C130.004 111.02 129.276 111.832 128.604 112.784C126.868 114.464 125.244 115.304 123.732 115.304C123.004 115.304 122.388 115.052 121.884 114.548ZM148.918 118.412C148.246 118.412 147.714 118.3 147.322 118.076C146.93 117.852 146.37 117.432 145.642 116.816C144.522 115.64 143.654 114.436 143.038 113.204C142.422 111.916 142.198 110.796 142.366 109.844C142.534 109.452 142.59 109.06 142.534 108.668C142.534 108.276 142.534 108.024 142.534 107.912C142.31 107.688 142.198 107.548 142.198 107.492C142.198 107.38 142.254 107.296 142.366 107.24C142.478 107.128 142.562 107.016 142.618 106.904C142.954 106.904 143.066 106.596 142.954 105.98C142.842 105.532 143.038 104.552 143.542 103.04C144.046 101.528 144.69 100.128 145.474 98.84C146.09 97.832 146.986 96.572 148.162 95.06C149.394 93.548 150.486 92.4 151.438 91.616C154.238 89.208 156.758 87.752 158.998 87.248C160.118 86.968 161.21 86.828 162.274 86.828C163.898 86.828 165.158 87.276 166.054 88.172C167.286 88.676 168.182 89.404 168.742 90.356C169.302 91.308 169.666 92.568 169.834 94.136C169.89 94.472 169.918 95.032 169.918 95.816C169.918 99.96 168.35 104.272 165.214 108.752C163.926 110.6 162.638 112.084 161.35 113.204C160.062 114.324 158.494 115.444 156.646 116.564C155.638 117.236 154.574 117.684 153.454 117.908C152.334 118.132 150.822 118.3 148.918 118.412ZM157.486 108.164C158.55 107.212 159.306 106.26 159.754 105.308C160.258 104.3 160.958 102.564 161.854 100.1C162.19 99.596 162.358 98.588 162.358 97.076C162.358 95.732 162.162 94.976 161.77 94.808C161.49 94.584 161.154 94.472 160.762 94.472C160.258 94.472 159.446 94.864 158.326 95.648C156.366 97.328 154.714 99.092 153.37 100.94C152.082 102.732 151.186 104.804 150.682 107.156C150.626 107.38 150.598 107.716 150.598 108.164C150.598 110.068 151.27 111.02 152.614 111.02C153.902 111.02 155.526 110.068 157.486 108.164ZM182.19 120.26C180.846 120.26 179.446 119.98 177.99 119.42C176.59 118.86 175.386 118.188 174.378 117.404C173.426 116.564 172.95 115.808 172.95 115.136C172.95 114.464 173.258 114.044 173.874 113.876L174.294 113.54C174.406 113.484 174.63 113.456 174.966 113.456C175.19 113.4 175.47 113.428 175.806 113.54C176.142 113.596 176.422 113.624 176.646 113.624C177.038 113.736 177.626 113.848 178.41 113.96L180.594 114.212C181.714 114.212 182.75 114.1 183.702 113.876C184.71 113.652 185.214 113.4 185.214 113.12C185.214 112.952 184.99 112.672 184.542 112.28C184.094 111.888 183.618 111.692 183.114 111.692C183.114 111.468 182.246 110.712 180.51 109.424C179.558 108.696 178.634 107.968 177.738 107.24C176.898 106.512 176.478 105.98 176.478 105.644L176.562 105.476V105.056C176.17 105.056 175.806 104.524 175.47 103.46C175.134 102.396 174.966 101.36 174.966 100.352C174.966 98.448 175.806 96.348 177.486 94.052C179.166 91.756 181.238 89.684 183.702 87.836C186.222 85.988 188.602 84.728 190.842 84.056C191.682 83.664 192.914 83.468 194.538 83.468C195.602 83.468 196.33 83.58 196.722 83.804L197.394 83.636C198.066 83.636 198.934 84.196 199.998 85.316C201.062 86.436 201.734 87.332 202.014 88.004C202.014 89.852 201.958 91.336 201.846 92.456C201.734 93.576 201.454 94.136 201.006 94.136C200.95 94.136 200.866 94.164 200.754 94.22C200.642 94.276 200.586 94.416 200.586 94.64C200.586 95.424 199.886 96.292 198.486 97.244C197.142 98.196 195.91 98.672 194.79 98.672L194.454 98.588C194.118 98.532 193.614 98.196 192.942 97.58C192.326 96.964 192.018 96.348 192.018 95.732C192.018 95.564 192.354 95.116 193.026 94.388C193.698 93.66 194.258 92.96 194.706 92.288C195.21 91.56 195.462 90.804 195.462 90.02C195.462 89.74 195.35 89.572 195.126 89.516C194.958 89.404 194.594 89.348 194.034 89.348C190.954 90.748 188.742 92.064 187.398 93.296C187.23 93.632 187.062 93.884 186.894 94.052C186.782 94.22 186.614 94.304 186.39 94.304C186.39 94.248 186.362 94.22 186.306 94.22C186.194 94.22 185.83 94.556 185.214 95.228C184.598 95.844 184.01 96.572 183.45 97.412C182.946 98.252 182.638 99.036 182.526 99.764L182.358 100.016V100.436C182.302 100.548 182.274 100.772 182.274 101.108C182.274 101.612 182.498 102.144 182.946 102.704C183.394 103.208 184.29 103.936 185.634 104.888C188.154 106.792 189.862 108.22 190.758 109.172C191.71 110.068 192.298 110.88 192.522 111.608C193.026 112.616 193.278 113.512 193.278 114.296C193.278 116.2 192.27 117.684 190.254 118.748C188.294 119.756 185.606 120.26 182.19 120.26ZM205.323 117.236C205.155 116.9 204.679 116.452 203.895 115.892C203.111 115.332 202.719 114.996 202.719 114.884C202.719 114.66 202.579 114.352 202.299 113.96C202.075 113.512 201.851 113.12 201.627 112.784C201.179 112.336 201.487 110.88 202.551 108.416C203.615 105.952 205.043 103.04 206.835 99.68C207.171 99.344 207.591 98.756 208.095 97.916C208.655 97.076 209.019 96.6 209.187 96.488C209.187 96.264 209.271 96.068 209.439 95.9C209.607 95.676 209.803 95.564 210.027 95.564L210.699 94.22C210.923 93.716 212.015 92.512 213.975 90.608C215.935 88.704 217.475 87.416 218.595 86.744C219.659 86.016 220.807 85.652 222.039 85.652C223.383 85.652 224.531 86.044 225.483 86.828L227.751 88.76C229.431 90.16 230.383 90.972 230.607 91.196L233.715 93.968L232.287 98.168C231.783 99.68 231.531 101.108 231.531 102.452C231.531 104.58 232.119 106.568 233.295 108.416C233.575 109.032 233.939 109.508 234.387 109.844C234.891 110.18 235.535 110.404 236.319 110.516C237.551 110.74 238.167 111.356 238.167 112.364C238.167 113.596 237.943 114.52 237.495 115.136C237.047 115.752 236.515 116.144 235.899 116.312C235.003 116.424 234.387 116.48 234.051 116.48C232.427 116.48 230.943 116.06 229.599 115.22C228.255 114.38 227.079 112.952 226.071 110.936C225.847 110.6 225.539 109.984 225.147 109.088C224.811 108.192 224.615 107.576 224.559 107.24C224.167 107.8 223.523 108.528 222.627 109.424C216.859 115.248 212.183 118.16 208.599 118.16C207.367 118.16 206.275 117.852 205.323 117.236ZM209.943 110.264C210.839 110.376 212.575 109.368 215.151 107.24C215.431 107.016 215.739 106.764 216.075 106.484C216.411 106.148 216.775 105.812 217.167 105.476C218.735 104.188 219.939 103.124 220.779 102.284C221.675 101.388 222.571 100.324 223.467 99.092L225.315 96.068C224.755 94.836 224.251 94.024 223.803 93.632C223.355 93.184 222.907 92.96 222.459 92.96C221.339 92.96 219.939 93.968 218.259 95.984C216.579 97.944 214.563 100.94 212.211 104.972C211.595 105.98 211.091 107.044 210.699 108.164C210.307 109.228 210.055 109.928 209.943 110.264Z" fill="#6F2D15"/>
</svg>
