<svg width="44" height="44" viewBox="0 0 44 44" fill="none" xmlns="http://www.w3.org/2000/svg">
<path d="M22 3.66666C19.5924 3.66666 17.2084 4.14086 14.9841 5.0622C12.7598 5.98353 10.7387 7.33396 9.03633 9.03637C5.59817 12.4745 3.66663 17.1377 3.66663 22C3.66663 26.8623 5.59817 31.5254 9.03633 34.9636C10.7387 36.666 12.7598 38.0164 14.9841 38.9378C17.2084 39.8591 19.5924 40.3333 22 40.3333C26.8623 40.3333 31.5254 38.4018 34.9636 34.9636C38.4018 31.5254 40.3333 26.8623 40.3333 22C40.3333 19.5924 39.8591 17.2084 38.9378 14.9841C38.0164 12.7598 36.666 10.7388 34.9636 9.03637C33.2612 7.33396 31.2401 5.98353 29.0158 5.0622C26.7915 4.14086 24.4075 3.66666 22 3.66666ZM12.9616 33.5133C13.75 31.8633 18.5533 30.25 22 30.25C25.4466 30.25 30.25 31.8633 31.0383 33.5133C28.4705 35.5594 25.2832 36.6714 22 36.6667C18.59 36.6667 15.455 35.4933 12.9616 33.5133ZM33.66 30.855C31.0383 27.665 24.6766 26.5833 22 26.5833C19.3233 26.5833 12.9616 27.665 10.34 30.855C8.38963 28.3151 7.33268 25.2023 7.33329 22C7.33329 13.915 13.915 7.33332 22 7.33332C30.085 7.33332 36.6666 13.915 36.6666 22C36.6666 25.3367 35.53 28.4167 33.66 30.855ZM22 11C18.4433 11 15.5833 13.86 15.5833 17.4167C15.5833 20.9733 18.4433 23.8333 22 23.8333C25.5566 23.8333 28.4166 20.9733 28.4166 17.4167C28.4166 13.86 25.5566 11 22 11ZM22 20.1667C21.2706 20.1667 20.5711 19.8769 20.0554 19.3612C19.5397 18.8455 19.25 18.146 19.25 17.4167C19.25 16.6873 19.5397 15.9878 20.0554 15.4721C20.5711 14.9564 21.2706 14.6667 22 14.6667C22.7293 14.6667 23.4288 14.9564 23.9445 15.4721C24.4602 15.9878 24.75 16.6873 24.75 17.4167C24.75 18.146 24.4602 18.8455 23.9445 19.3612C23.4288 19.8769 22.7293 20.1667 22 20.1667Z" fill="#F7EFE2"/>
</svg>
