<svg width="14" height="14" viewBox="0 0 14 14" fill="none" xmlns="http://www.w3.org/2000/svg">
<path d="M7.29167 0.875C6.25917 0.875 5.34917 1.5575 5.0575 2.54917C4.74833 2.40917 4.42167 2.33333 4.08333 2.33333C3.46449 2.33333 2.871 2.57917 2.43342 3.01675C1.99583 3.45434 1.75 4.04783 1.75 4.66667C1.75138 5.1834 1.92383 5.68514 2.24042 6.09354C2.55701 6.50194 2.99992 6.79402 3.5 6.92417V11.0833H11.0833V6.92417C12.11 6.65583 12.8333 5.72833 12.8333 4.66667C12.8333 4.04783 12.5875 3.45434 12.1499 3.01675C11.7123 2.57917 11.1188 2.33333 10.5 2.33333C10.1617 2.33333 9.835 2.40917 9.52583 2.54917C9.23417 1.5575 8.32417 0.875 7.29167 0.875ZM7 6.125H7.58333V10.2083H7V6.125ZM5.25 7.29167H5.83333V10.2083H5.25V7.29167ZM8.75 7.29167H9.33333V10.2083H8.75V7.29167ZM3.5 11.6667V12.25C3.5 12.4047 3.56146 12.5531 3.67085 12.6625C3.78025 12.7719 3.92862 12.8333 4.08333 12.8333H10.5C10.6547 12.8333 10.8031 12.7719 10.9125 12.6625C11.0219 12.5531 11.0833 12.4047 11.0833 12.25V11.6667H3.5Z" fill="white"/>
</svg>
