<svg width="14" height="14" viewBox="0 0 14 14" fill="none" xmlns="http://www.w3.org/2000/svg">
<path d="M12.3157 6.02631L11.1602 4.87131C11.1443 4.8553 11.1253 4.8426 11.1044 4.83393C11.0836 4.82526 11.0612 4.8208 11.0386 4.8208C11.016 4.8208 10.9936 4.82526 10.9727 4.83393C10.9518 4.8426 10.9329 4.8553 10.9169 4.87131L7.7553 8.03251L7.7616 8.03881L7.75152 8.03601L7.31878 9.65077L7.32004 9.65105C7.30908 9.68267 7.30773 9.71683 7.31617 9.74922C7.32461 9.78161 7.34246 9.81077 7.36745 9.83303C7.39245 9.85529 7.42348 9.86964 7.45663 9.87428C7.48977 9.87891 7.52355 9.87363 7.5537 9.85909L7.55398 9.86035L9.15208 9.43209L9.1511 9.42831L9.15376 9.43097L12.3155 6.26935C12.3477 6.23709 12.3658 6.19341 12.3658 6.14786C12.3658 6.10231 12.3478 6.0586 12.3157 6.02631V6.02631ZM7.8449 9.33759L8.10194 8.37915L8.80362 9.08083L7.8449 9.33759Z" fill="#32695C"/>
<path d="M10.0754 10.2522H9.02762H9.02748C8.98188 10.2523 8.93817 10.2704 8.90594 10.3027C8.87371 10.3349 8.85559 10.3787 8.85556 10.4243L8.85584 10.4259V11.646H3.02568V3.05325H3.72526V3.48291C3.72498 3.48753 3.72386 3.49173 3.72386 3.49649C3.72386 3.63621 3.83726 3.75045 3.97782 3.75045L3.97978 3.75031V3.75143H7.90356C7.97085 3.75136 8.03537 3.72459 8.08295 3.67701C8.13054 3.62943 8.1573 3.56491 8.15738 3.49761C8.15738 3.49551 8.15682 3.49355 8.15682 3.49145V3.05325H8.8557V4.27377L8.85542 4.27545C8.85538 4.29805 8.8598 4.32043 8.86843 4.34131C8.87705 4.36219 8.88971 4.38117 8.90568 4.39715C8.92165 4.41313 8.94062 4.42581 8.96149 4.43445C8.98237 4.44309 9.00474 4.44753 9.02734 4.44751H10.0752C10.1208 4.44748 10.1645 4.42935 10.1968 4.39712C10.229 4.36489 10.2471 4.32118 10.2472 4.27559V2.41639H10.2445C10.2446 2.40953 10.2466 2.40309 10.2466 2.39609C10.2466 2.20144 10.1693 2.01476 10.0317 1.87706C9.89414 1.73937 9.70751 1.66194 9.51286 1.66179C9.50726 1.66179 9.50222 1.66333 9.49662 1.66347H7.45864V1.18691C7.45864 1.06357 7.35868 0.963894 7.23562 0.963614V0.962494H4.65262V0.963334C4.65052 0.963334 4.6487 0.962774 4.6466 0.962774C4.5234 0.962774 4.42344 1.06259 4.42344 1.18593L4.42386 1.19013V1.66333H2.3709L2.3681 1.66305C2.1735 1.66328 1.98695 1.74069 1.84936 1.8783C1.71178 2.01591 1.6344 2.20248 1.63422 2.39707C1.63422 2.40365 1.63604 2.40967 1.63618 2.41625H1.63422V12.2963H1.63464L1.63422 12.3001C1.63425 12.3965 1.65327 12.4919 1.69018 12.5809C1.72709 12.6699 1.78117 12.7507 1.84933 12.8188C1.91749 12.8869 1.9984 12.9409 2.08744 12.9777C2.17647 13.0146 2.27189 13.0335 2.36824 13.0334C2.37916 13.0334 2.38938 13.0306 2.4003 13.0302V13.0332H9.4703C9.48402 13.0339 9.49704 13.0372 9.5109 13.0372C9.70539 13.0372 9.8919 12.9599 10.0294 12.8224C10.167 12.6849 10.2443 12.4984 10.2444 12.3039C10.2444 12.3012 10.2437 12.2989 10.2437 12.2962H10.2476V10.4241C10.2476 10.4015 10.2431 10.3791 10.2344 10.3583C10.2258 10.3374 10.2131 10.3185 10.1971 10.3025C10.1811 10.2865 10.1621 10.2739 10.1412 10.2652C10.1203 10.2566 10.098 10.2522 10.0754 10.2522V10.2522Z" fill="#32695C"/>
</svg>
