<svg width="66" height="60" viewBox="0 0 66 60" fill="none" xmlns="http://www.w3.org/2000/svg">
<g clip-path="url(#clip0)">
<mask id="path-2-inside-1" fill="white">
<path d="M64.3238 32.8C64.3238 32.8 66.3519 30.8 65.9463 26.4C65.9463 20.4 59.4564 20 59.4564 20H49.7216C48.9103 20 48.5047 19.2 48.5047 18.4C49.7216 15.6 51.7497 10 50.9384 6C49.7216 0.4 44.8542 0 43.2317 0C42.8261 0 42.4205 0.4 42.4205 0.8L38.3643 12C38.3643 12 38.3643 12.4 37.9587 12.4L27.4126 23.6C27.007 24 26.6014 24 26.1958 24H25.3845V52H26.1958C29.0351 52 39.1755 60 48.0991 60C57.0227 60 59.0508 58.8 60.6732 56C62.2957 53.2 61.0789 50.8 61.0789 50.8C61.0789 50.8 63.1069 49.6 63.5126 46.8C63.9182 44 63.107 42.4 63.107 42.4C63.107 42.4 65.135 40.8 65.135 37.6C65.5407 34 64.3238 32.8 64.3238 32.8Z"/>
</mask>
<path d="M64.3238 32.8L62.9195 31.376L61.4754 32.8L62.9195 34.224L64.3238 32.8ZM65.9463 26.4H63.9463V26.492L63.9547 26.5836L65.9463 26.4ZM59.4564 20L59.5794 18.0038L59.518 18H59.4564V20ZM48.5047 18.4L46.6705 17.6028L46.5047 17.9842V18.4H48.5047ZM50.9384 6L52.8985 5.60248L52.8958 5.58888L52.8928 5.57532L50.9384 6ZM42.4205 0.8L44.3009 1.48103L44.4205 1.151V0.8H42.4205ZM38.3643 12L36.4838 11.319L36.3643 11.649L36.3643 12L38.3643 12ZM37.9587 12.4V10.4H37.0948L36.5026 11.0289L37.9587 12.4ZM27.4126 23.6L28.8169 25.024L28.8433 24.998L28.8687 24.9711L27.4126 23.6ZM25.3845 24V22H23.3845V24H25.3845ZM25.3845 52H23.3845V54H25.3845V52ZM61.0789 50.8L60.0604 49.0787L58.4476 50.033L59.295 51.7044L61.0789 50.8ZM63.107 42.4L61.8682 40.8298L60.5827 41.844L61.3231 43.3044L63.107 42.4ZM65.135 37.6L63.1476 37.3761L63.135 37.4877V37.6H65.135ZM64.3238 32.8C65.7281 34.224 65.729 34.2232 65.7298 34.2224C65.7301 34.2221 65.731 34.2212 65.7316 34.2206C65.7327 34.2195 65.7339 34.2183 65.7352 34.217C65.7377 34.2146 65.7403 34.212 65.743 34.2092C65.7484 34.2038 65.7544 34.1977 65.7608 34.1912C65.7736 34.178 65.7884 34.1627 65.8049 34.1451C65.8378 34.11 65.8778 34.0659 65.9237 34.0129C66.0153 33.9068 66.1305 33.7643 66.2595 33.5844C66.5176 33.2246 66.8314 32.7144 67.1214 32.0472C67.7067 30.7003 68.1727 28.7638 67.9378 26.2164L63.9547 26.5836C64.1255 28.4362 63.7802 29.6997 63.4529 30.4528C63.2865 30.8356 63.1187 31.1004 63.0092 31.2531C62.9544 31.3295 62.9143 31.3776 62.8966 31.3981C62.8878 31.4083 62.8847 31.4115 62.8881 31.4078C62.8898 31.406 62.8932 31.4024 62.8984 31.3971C62.901 31.3944 62.9041 31.3913 62.9076 31.3878C62.9093 31.3861 62.9112 31.3842 62.9132 31.3822C62.9142 31.3812 62.9152 31.3802 62.9162 31.3792C62.9168 31.3786 62.9176 31.3778 62.9178 31.3776C62.9187 31.3768 62.9195 31.376 64.3238 32.8ZM67.9463 26.4C67.9463 22.478 65.7367 20.2824 63.6295 19.1784C62.6129 18.6458 61.6183 18.3579 60.8922 18.2012C60.5247 18.122 60.2144 18.0738 59.9885 18.045C59.8753 18.0306 59.7825 18.0208 59.7134 18.0145C59.6788 18.0113 59.6501 18.0089 59.6277 18.0072C59.6164 18.0063 59.6068 18.0056 59.5987 18.0051C59.5947 18.0048 59.5911 18.0045 59.5878 18.0043C59.5862 18.0042 59.5847 18.0041 59.5833 18.004C59.5826 18.004 59.5817 18.0039 59.5813 18.0039C59.5804 18.0038 59.5794 18.0038 59.4564 20C59.3334 21.9962 59.3325 21.9962 59.3316 21.9961C59.3314 21.9961 59.3306 21.996 59.33 21.996C59.329 21.9959 59.3281 21.9959 59.3273 21.9958C59.3257 21.9957 59.3244 21.9956 59.3235 21.9956C59.3217 21.9954 59.3213 21.9954 59.3224 21.9955C59.3245 21.9957 59.3322 21.9963 59.3452 21.9975C59.3711 21.9999 59.4177 22.0046 59.482 22.0128C59.611 22.0293 59.8077 22.0593 60.0487 22.1113C60.5394 22.2171 61.1673 22.4042 61.7732 22.7216C62.9109 23.3177 63.9463 24.322 63.9463 26.4H67.9463ZM59.4564 18H49.7216V22H59.4564V18ZM49.7216 18C49.8611 18 50.0286 18.0381 50.1865 18.1289C50.336 18.2149 50.4232 18.3168 50.4658 18.3799C50.5356 18.483 50.5047 18.4981 50.5047 18.4H46.5047C46.5047 19.1019 46.6767 19.917 47.152 20.6201C47.6677 21.383 48.5529 22 49.7216 22V18ZM50.339 19.1972C50.9746 17.7347 51.8301 15.5245 52.4234 13.1312C53.0058 10.7817 53.3923 8.03706 52.8985 5.60248L48.9783 6.39752C49.2958 7.96294 49.0739 10.0183 48.5409 12.1688C48.0187 14.2755 47.2517 16.2653 46.6705 17.6028L50.339 19.1972ZM52.8928 5.57532C52.1492 2.15315 50.2183 0.173167 48.1444 -0.882405C46.1642 -1.89028 44.1748 -2 43.2317 -2V2C43.9111 2 45.1666 2.09028 46.33 2.68241C47.3996 3.22683 48.5108 4.24685 48.984 6.42468L52.8928 5.57532ZM43.2317 -2C42.3882 -2 41.7052 -1.60356 41.2696 -1.17404C40.8358 -0.746232 40.4205 -0.0603872 40.4205 0.8H44.4205C44.4205 1.26039 44.2079 1.54623 44.0783 1.67404C43.9469 1.80356 43.6695 2 43.2317 2V-2ZM40.54 0.118969L36.4838 11.319L40.2448 12.681L44.3009 1.48103L40.54 0.118969ZM38.3643 12C36.3643 12 36.3643 11.999 36.3643 11.998C36.3643 11.9977 36.3643 11.9967 36.3643 11.996C36.3643 11.9947 36.3643 11.9934 36.3643 11.9921C36.3643 11.9895 36.3643 11.9868 36.3643 11.9842C36.3644 11.9789 36.3645 11.9737 36.3645 11.9684C36.3647 11.958 36.365 11.9475 36.3653 11.9369C36.366 11.9159 36.3671 11.8945 36.3687 11.8727C36.3718 11.8297 36.3771 11.7816 36.3859 11.7292C36.402 11.6338 36.438 11.4766 36.5298 11.2956C36.6258 11.1062 36.7998 10.86 37.0945 10.6663C37.4003 10.4653 37.7158 10.4 37.9587 10.4V14.4C38.4044 14.4 38.872 14.2847 39.2919 14.0087C39.7006 13.74 39.9507 13.3938 40.0974 13.1044C40.2399 12.8234 40.3012 12.5662 40.33 12.3958C40.3452 12.3059 40.3536 12.2265 40.3583 12.1617C40.3606 12.1289 40.3621 12.0989 40.363 12.0721C40.3635 12.0586 40.3638 12.0458 40.364 12.0338C40.3641 12.0278 40.3642 12.022 40.3642 12.0164C40.3642 12.0136 40.3643 12.0108 40.3643 12.0081C40.3643 12.0067 40.3643 12.0053 40.3643 12.004C40.3643 12.0033 40.3643 12.0023 40.3643 12.002C40.3643 12.001 40.3643 12 38.3643 12ZM36.5026 11.0289L25.9565 22.2289L28.8687 24.9711L39.4147 13.7711L36.5026 11.0289ZM26.0083 22.176C26.0279 22.1566 26.071 22.1196 26.1382 22.0823C26.2061 22.0447 26.2723 22.0212 26.3254 22.0081C26.374 21.9962 26.3982 21.9962 26.3769 21.9975C26.3663 21.9982 26.348 21.999 26.317 21.9995C26.2843 22 26.249 22 26.1958 22V26C26.6271 26 27.7898 26.0369 28.8169 25.024L26.0083 22.176ZM26.1958 22H25.3845V26H26.1958V22ZM23.3845 24V52H27.3845V24H23.3845ZM25.3845 54H26.1958V50H25.3845V54ZM26.1958 54C26.1629 54 26.3438 54.008 26.8656 54.2095C27.3392 54.3924 27.9336 54.6697 28.6616 55.0363C29.3854 55.4008 30.19 55.8272 31.0887 56.3007C31.9796 56.7701 32.95 57.2788 33.9724 57.7893C37.9922 59.7965 43.1276 62 48.0991 62V58C44.147 58 39.7504 56.2035 35.7593 54.2107C34.7789 53.7212 33.8417 53.2299 32.9532 52.7618C32.0726 52.2978 31.2262 51.8492 30.4606 51.4637C29.6993 51.0803 28.9659 50.7326 28.3066 50.478C27.6955 50.2421 26.9384 50 26.1958 50V54ZM48.0991 62C52.58 62 55.6197 61.7088 57.795 60.9341C60.1755 60.0864 61.42 58.7004 62.4037 57.0027L58.9428 54.9973C58.304 56.0996 57.7232 56.7136 56.4531 57.1659C54.978 57.6912 52.5418 58 48.0991 58V62ZM62.4037 57.0027C63.4643 55.1724 63.6112 53.4312 63.4732 52.1377C63.405 51.4986 63.2681 50.9712 63.1428 50.5917C63.0799 50.4012 63.0191 50.2455 62.9697 50.1287C62.9449 50.0703 62.9229 50.0213 62.9047 49.9823C62.8956 49.9628 62.8875 49.9458 62.8804 49.9314C62.8769 49.9241 62.8737 49.9175 62.8707 49.9115C62.8692 49.9086 62.8678 49.9057 62.8665 49.9031C62.8658 49.9017 62.8652 49.9005 62.8645 49.8992C62.8642 49.8986 62.8637 49.8977 62.8636 49.8974C62.8631 49.8965 62.8627 49.8956 61.0789 50.8C59.295 51.7044 59.2946 51.7036 59.2942 51.7027C59.294 51.7024 59.2936 51.7016 59.2933 51.701C59.2928 51.6999 59.2922 51.6988 59.2917 51.6978C59.2907 51.6957 59.2897 51.6938 59.2888 51.692C59.287 51.6883 59.2854 51.6852 59.2842 51.6826C59.2816 51.6774 59.2801 51.6742 59.2795 51.6729C59.2784 51.6705 59.2809 51.6758 59.2863 51.6884C59.2971 51.7139 59.3186 51.7675 59.3445 51.8458C59.3967 52.0038 59.4626 52.2514 59.4958 52.5623C59.5605 53.1688 59.5046 54.0276 58.9428 54.9973L62.4037 57.0027ZM61.0789 50.8C62.0973 52.5213 62.0981 52.5208 62.0989 52.5203C62.0992 52.5202 62.1 52.5197 62.1006 52.5193C62.1017 52.5187 62.1028 52.518 62.104 52.5173C62.1064 52.5159 62.1088 52.5144 62.1115 52.5128C62.1167 52.5097 62.1224 52.5062 62.1287 52.5024C62.1412 52.4947 62.1557 52.4857 62.172 52.4754C62.2048 52.4546 62.2451 52.4283 62.2921 52.3964C62.3859 52.3325 62.5069 52.2455 62.647 52.1341C62.9261 51.9121 63.2875 51.5882 63.6615 51.1524C64.4138 50.2756 65.2242 48.9347 65.4919 47.0867L61.5332 46.5133C61.3953 47.4653 60.9889 48.1244 60.6258 48.5476C60.442 48.7618 60.271 48.9129 60.1572 49.0034C60.1008 49.0483 60.0602 49.0769 60.0415 49.0896C60.0322 49.0959 60.0286 49.0981 60.0314 49.0963C60.0329 49.0954 60.0359 49.0935 60.0407 49.0906C60.0431 49.0891 60.0459 49.0874 60.0492 49.0854C60.0508 49.0844 60.0526 49.0834 60.0545 49.0823C60.0554 49.0817 60.0564 49.0811 60.0574 49.0805C60.0578 49.0803 60.0586 49.0798 60.0589 49.0797C60.0596 49.0792 60.0604 49.0787 61.0789 50.8ZM65.4919 47.0867C65.7303 45.4413 65.616 44.1093 65.422 43.1525C65.3253 42.6756 65.2093 42.2947 65.1093 42.0166C65.0592 41.8776 65.0131 41.7641 64.9753 41.6771C64.9564 41.6335 64.9395 41.5966 64.9253 41.5663C64.9181 41.5512 64.9116 41.5377 64.9059 41.5259C64.903 41.52 64.9003 41.5145 64.8978 41.5095C64.8965 41.507 64.8953 41.5045 64.8941 41.5022C64.8935 41.501 64.893 41.4999 64.8924 41.4988C64.8921 41.4983 64.8917 41.4974 64.8916 41.4972C64.8912 41.4964 64.8908 41.4956 63.107 42.4C61.3231 43.3044 61.3227 43.3037 61.3223 43.3029C61.3222 43.3026 61.3218 43.3018 61.3216 43.3013C61.3211 43.3003 61.3206 43.2993 61.3201 43.2984C61.3191 43.2965 61.3182 43.2946 61.3173 43.2929C61.3156 43.2894 61.314 43.2862 61.3127 43.2834C61.3099 43.2779 61.308 43.2737 61.3067 43.271C61.3041 43.2655 61.3043 43.2657 61.3067 43.2714C61.3117 43.2828 61.3258 43.3162 61.3455 43.3709C61.3849 43.4803 61.4464 43.6744 61.5018 43.9475C61.6119 44.4907 61.7005 45.3587 61.5332 46.5133L65.4919 47.0867ZM63.107 42.4C64.3457 43.9702 64.3465 43.9696 64.3472 43.969C64.3475 43.9688 64.3483 43.9682 64.3488 43.9678C64.3498 43.9669 64.3509 43.966 64.3521 43.9652C64.3543 43.9634 64.3567 43.9615 64.3592 43.9595C64.3642 43.9555 64.3697 43.951 64.3757 43.9461C64.3877 43.9363 64.4017 43.9248 64.4175 43.9115C64.4491 43.8849 64.4881 43.8512 64.5334 43.8104C64.6239 43.7288 64.7402 43.6181 64.8734 43.478C65.1389 43.1987 65.4767 42.7969 65.8103 42.2706C66.4824 41.2101 67.135 39.6441 67.135 37.6H63.135C63.135 38.7559 62.7736 39.5899 62.4317 40.1294C62.2582 40.4031 62.0891 40.6013 61.9743 40.722C61.9174 40.7819 61.8753 40.8212 61.8548 40.8396C61.8447 40.8488 61.8401 40.8526 61.842 40.851C61.8429 40.8502 61.8455 40.848 61.8498 40.8445C61.852 40.8427 61.8546 40.8406 61.8577 40.8382C61.8592 40.837 61.8608 40.8357 61.8626 40.8343C61.8635 40.8336 61.8644 40.8328 61.8653 40.8321C61.8658 40.8317 61.8665 40.8312 61.8667 40.831C61.8675 40.8304 61.8682 40.8298 63.107 42.4ZM67.1225 37.8239C67.3534 35.7744 67.1363 34.2748 66.7762 33.2096C66.5971 32.6796 66.3871 32.2709 66.1933 31.9675C66.0968 31.8163 66.0054 31.6929 65.9255 31.5949C65.8855 31.5459 65.8486 31.5034 65.8154 31.467C65.7988 31.4488 65.7832 31.4321 65.7686 31.417C65.7613 31.4094 65.7543 31.4022 65.7475 31.3953C65.7441 31.3919 65.7408 31.3886 65.7376 31.3854C65.736 31.3838 65.7344 31.3822 65.7328 31.3806C65.732 31.3798 65.7309 31.3787 65.7305 31.3783C65.7293 31.3771 65.7281 31.376 64.3238 32.8C62.9195 34.224 62.9183 34.2229 62.9172 34.2218C62.9168 34.2214 62.9157 34.2203 62.9149 34.2195C62.9134 34.218 62.9119 34.2165 62.9104 34.2151C62.9075 34.2121 62.9046 34.2092 62.9018 34.2064C62.8963 34.2008 62.891 34.1953 62.886 34.1901C62.876 34.1797 62.8671 34.1703 62.8593 34.1617C62.8438 34.1447 62.8326 34.1314 62.8251 34.1223C62.8102 34.104 62.8106 34.1024 62.8219 34.12C62.8436 34.1541 62.9125 34.2704 62.9868 34.4904C63.1338 34.9252 63.3223 35.8256 63.1476 37.3761L67.1225 37.8239Z" fill="white" mask="url(#path-2-inside-1)"/>
<path d="M0 56.3265H20.3077V24.4897H0V56.3265ZM10.1538 42.3979C12.5908 42.3979 14.2154 43.9897 14.2154 46.3775C14.2154 48.7653 12.5908 50.3571 10.1538 50.3571C7.71692 50.3571 6.09231 48.7653 6.09231 46.3775C6.09231 43.9897 7.71692 42.3979 10.1538 42.3979Z" fill="white"/>
</g>
<defs>
<clipPath id="clip0">
<path d="M0 0H66V60H0V0Z" fill="white"/>
</clipPath>
</defs>
</svg>
