<svg width="391" height="73" viewBox="0 0 391 73" fill="none" xmlns="http://www.w3.org/2000/svg">
<path d="M10.3824 67.544C8.64637 66.928 6.96637 66.032 5.34237 64.856C3.77437 63.68 2.62637 62.196 1.89837 60.404C1.00237 57.884 0.554365 54.916 0.554365 51.5C0.554365 48.196 0.750365 45.396 1.14237 43.1C1.53437 40.748 2.20637 38.368 3.15837 35.96L3.91437 34.196C4.81037 31.9 5.45437 30.388 5.84637 29.66C6.79837 27.476 8.47837 24.648 10.8864 21.176C13.1264 17.816 14.8904 15.324 16.1784 13.7C17.5224 12.02 18.8944 10.592 20.2944 9.416C21.6944 8.184 23.7384 6.644 26.4264 4.796C28.0504 3.62 30.0384 3.032 32.3904 3.032C34.2384 3.032 35.9184 3.48 37.4304 4.376C38.9984 5.272 40.1744 6.672 40.9584 8.576C41.5184 9.528 41.7984 10.844 41.7984 12.524C41.7984 15.212 41.1544 18.124 39.8664 21.26C38.5784 24.396 37.0384 26.776 35.2464 28.4C34.8544 28.792 34.3224 28.988 33.6504 28.988C32.9784 28.988 32.2504 28.792 31.4664 28.4C30.6824 28.008 29.9824 27.532 29.3664 26.972C28.8624 26.02 28.5824 25.46 28.5264 25.292C28.4704 25.124 28.5824 25.012 28.8624 24.956C29.3664 24.34 30.0944 23.164 31.0464 21.428C32.0544 19.636 32.7264 18.236 33.0624 17.228L33.5664 14.876C33.9024 13.42 34.0704 12.468 34.0704 12.02C34.0704 11.516 33.8744 11.068 33.4824 10.676C33.3144 10.508 33.0904 10.424 32.8104 10.424C32.3624 10.424 31.5784 10.704 30.4584 11.264C29.1704 11.824 27.6304 12.972 25.8384 14.708C24.1024 16.388 22.3664 18.404 20.6304 20.756C18.0544 24.116 16.0664 26.888 14.6664 29.072C13.3224 31.256 12.2864 33.468 11.5584 35.708L10.6344 37.892C10.6904 38.116 10.6064 38.676 10.3824 39.572C10.1584 40.468 9.90637 41.196 9.62637 41.756C8.84237 45.004 8.45037 47.944 8.45037 50.576C8.45037 52.648 8.64637 54.44 9.03837 55.952C9.48637 57.464 10.1024 58.584 10.8864 59.312C11.3344 59.704 11.9784 59.9 12.8184 59.9C13.7144 59.9 14.7224 59.704 15.8424 59.312C17.0184 58.864 18.2504 58.36 19.5384 57.8C20.8264 57.24 21.7224 56.848 22.2264 56.624C23.5144 56.12 24.7184 55.532 25.8384 54.86C27.0144 54.188 27.8824 53.572 28.4424 53.012C29.8984 51.948 31.0744 51.416 31.9704 51.416C32.6984 51.192 33.2584 51.416 33.6504 52.088C34.0984 52.76 34.3224 53.684 34.3224 54.86C34.3224 55.644 33.7904 56.596 32.7264 57.716C31.6624 58.78 30.4024 59.732 28.9464 60.572C28.3304 61.188 26.9584 61.916 24.8304 62.756C23.0384 64.044 20.9384 65.192 18.5304 66.2C16.1784 67.208 14.0224 67.712 12.0624 67.712C11.6144 67.712 11.0544 67.656 10.3824 67.544ZM43.5916 58.808C42.5836 58.64 41.6596 58.08 40.8196 57.128C39.9796 56.176 39.5596 55.084 39.5596 53.852C39.5596 52.508 40.3996 49.064 42.0796 43.52C42.3596 42.064 42.9756 40.188 43.9276 37.892C44.2636 36.94 44.4596 36.38 44.5156 36.212C45.5236 32.852 46.8956 28.736 48.6316 23.864L49.3876 21.848C51.3476 16.528 52.5236 13.28 52.9156 12.104L54.2596 8.408C54.2596 7.96 54.5676 7.54 55.1836 7.148C55.8556 6.7 56.4156 6.476 56.8636 6.476C57.7596 6.476 58.6276 7.064 59.4676 8.24C60.3076 9.416 60.7556 10.648 60.8116 11.936C60.8116 12.608 60.6716 13.224 60.3916 13.784C59.1036 16.584 57.5076 20.924 55.6036 26.804C54.7636 29.268 53.9236 31.62 53.0836 33.86C52.2436 36.044 51.5716 37.612 51.0676 38.564L50.1436 40.412L48.9676 44.864C48.9676 45.032 48.9396 45.172 48.8836 45.284C48.8276 45.396 48.7996 45.48 48.7996 45.536C48.7996 45.704 48.8276 45.788 48.8836 45.788L50.3116 44.36C51.9356 42.736 53.8676 41.084 56.1076 39.404C57.9556 38.116 58.9076 37.388 58.9636 37.22C59.0196 37.052 59.2436 36.8 59.6356 36.464L60.4756 35.792C62.2676 34.504 64.1996 33.86 66.2716 33.86C66.8876 33.86 67.6156 34.168 68.4556 34.784C69.2956 35.4 69.9956 36.268 70.5556 37.388C71.1716 38.452 71.4796 39.6 71.4796 40.832V41.504V42.092C71.4796 43.492 71.1996 45.34 70.6396 47.636C70.1356 49.876 69.8556 51.164 69.7996 51.5C70.0796 51.5 70.4996 51.444 71.0596 51.332C71.8996 51.332 72.4876 51.416 72.8236 51.584C73.2156 51.752 73.5516 51.976 73.8316 52.256C74.1116 52.536 74.3636 52.704 74.5876 52.76C74.6996 52.872 74.7556 53.04 74.7556 53.264C74.7556 54.552 74.0556 55.672 72.6556 56.624C71.2556 57.576 69.9116 58.108 68.6236 58.22C67.0556 58.22 65.7956 57.632 64.8436 56.456C63.8916 55.28 63.4156 53.852 63.4156 52.172C63.4156 51.5 63.4436 50.828 63.4996 50.156C63.5556 49.484 63.6116 48.896 63.6676 48.392C63.8356 47.272 63.9196 46.376 63.9196 45.704C63.9196 44.976 63.8356 44.5 63.6676 44.276C63.5556 43.996 63.3316 43.856 62.9956 43.856C61.8756 43.856 59.9156 44.892 57.1156 46.964C54.3716 48.98 51.5716 51.612 48.7156 54.86C46.9236 57.492 45.2156 58.808 43.5916 58.808ZM90.5847 62C87.3927 62 84.8167 61.104 82.8567 59.312C80.8967 57.52 79.9167 54.972 79.9167 51.668C79.9167 50.38 80.0007 48.952 80.1687 47.384C80.2807 46.04 80.8127 44.192 81.7647 41.84C82.7727 39.488 84.1167 37.192 85.7967 34.952C87.5327 32.712 89.5487 31.06 91.8447 29.996C92.9087 29.492 93.8047 29.156 94.5327 28.988C95.2607 28.764 96.1007 28.652 97.0527 28.652C99.3487 28.652 101.197 29.072 102.597 29.912C104.053 30.752 105.061 31.704 105.621 32.768C106.237 33.832 106.545 34.756 106.545 35.54V35.96V36.212C106.545 36.884 106.153 38.116 105.369 39.908C104.585 41.7 103.325 43.38 101.589 44.948C99.9087 46.516 97.7247 47.384 95.0367 47.552C93.6927 47.552 92.3767 47.44 91.0887 47.216C89.8567 46.936 89.0727 46.796 88.7367 46.796C87.8967 46.796 87.3647 47.104 87.1407 47.72C86.9167 48.336 86.8047 49.372 86.8047 50.828C86.9727 52.396 87.3927 53.488 88.0647 54.104C88.7927 54.72 89.8287 55.028 91.1727 55.028C91.8447 55.028 92.6287 54.832 93.5247 54.44C94.4207 53.992 95.4847 53.292 96.7167 52.34C97.3887 51.78 97.9207 51.388 98.3127 51.164C98.7047 50.94 99.1807 50.828 99.7407 50.828C100.245 50.828 100.833 51.164 101.505 51.836C102.177 52.508 102.541 53.152 102.597 53.768C102.485 54.44 101.869 55.448 100.749 56.792C99.6287 58.136 98.1727 59.34 96.3807 60.404C94.5887 61.468 92.6567 62 90.5847 62ZM93.5247 41.756C94.5887 41.756 95.3167 41.644 95.7087 41.42C96.2687 41.14 97.1087 40.44 98.2287 39.32C99.4047 38.144 100.021 37.332 100.077 36.884C100.077 36.324 99.8247 35.876 99.3207 35.54C98.8727 35.148 98.2287 34.896 97.3887 34.784H96.4647C95.7367 34.784 94.6727 35.4 93.2727 36.632C91.9287 37.808 90.7527 39.18 89.7447 40.748C89.8007 41.028 90.2207 41.28 91.0047 41.504C91.7887 41.672 92.6287 41.756 93.5247 41.756ZM112.405 72.164C112.069 72.388 111.285 72.108 110.053 71.324C108.877 70.596 107.897 69.784 107.113 68.888C106.777 68.552 106.553 68.216 106.441 67.88C106.329 67.6 106.273 67.208 106.273 66.704L106.441 64.604C106.721 63.764 106.861 62.784 106.861 61.664C106.861 61.216 107.057 59.816 107.449 57.464C107.841 55.056 108.149 53.32 108.373 52.256L108.625 51.248C109.073 49.4 109.409 47.692 109.633 46.124C110.081 44.724 110.445 43.352 110.725 42.008C111.061 40.608 111.229 39.656 111.229 39.152C111.229 38.144 111.621 37.416 112.405 36.968C112.461 36.52 112.881 35.596 113.665 34.196C115.009 30.388 115.989 27.672 116.605 26.048C117.277 24.368 117.977 22.912 118.705 21.68C119.713 18.88 120.525 17.116 121.141 16.388C121.533 15.436 122.597 14.036 124.333 12.188C126.069 10.34 127.609 8.856 128.953 7.736C131.753 6.28 134.105 5.552 136.009 5.552C137.633 5.552 139.509 6.56 141.637 8.576C142.421 9.416 142.869 9.976 142.981 10.256C143.093 10.536 143.149 11.068 143.149 11.852C142.925 12.916 141.945 14.792 140.209 17.48C138.473 20.168 137.381 21.54 136.933 21.596C136.261 21.82 135.813 21.932 135.589 21.932C135.085 21.932 134.665 21.764 134.329 21.428C133.993 21.092 133.825 20.588 133.825 19.916C133.825 18.852 134.161 17.62 134.833 16.22C135.505 15.324 135.841 14.54 135.841 13.868C135.841 12.916 135.085 12.44 133.573 12.44C133.125 12.664 132.229 13.476 130.885 14.876C129.597 16.22 128.953 17.06 128.953 17.396C128.897 17.508 128.729 17.816 128.449 18.32C128.225 18.768 127.861 19.3 127.357 19.916C126.349 21.316 125.845 22.184 125.845 22.52C125.845 23.248 125.677 23.612 125.341 23.612C125.285 23.724 125.145 24.06 124.921 24.62C124.753 25.124 124.501 25.684 124.165 26.3C123.941 26.804 123.661 27.364 123.325 27.98C122.989 28.596 122.709 29.016 122.485 29.24H122.569C122.401 29.632 122.093 30.388 121.645 31.508C121.197 32.572 120.973 33.188 120.973 33.356C120.973 33.58 121.309 33.692 121.981 33.692C123.213 33.692 124.949 33.384 127.189 32.768C127.917 32.544 128.449 32.432 128.785 32.432C129.177 32.432 129.737 32.544 130.465 32.768C131.081 33.16 131.585 34.028 131.977 35.372C132.369 36.716 132.453 37.556 132.229 37.892C132.173 38.116 131.557 38.424 130.381 38.816C129.261 39.208 128.085 39.516 126.853 39.74L123.409 40.496C120.217 41.168 118.621 41.616 118.621 41.84C118.397 41.84 118.201 41.952 118.033 42.176C117.865 42.4 117.781 42.624 117.781 42.848C117.781 43.632 117.669 44.22 117.445 44.612C117.165 45.396 116.689 47.272 116.017 50.24C115.401 53.208 115.093 55.028 115.093 55.7C114.645 56.26 114.421 57.268 114.421 58.724C114.085 59.34 113.917 60.04 113.917 60.824C113.917 61.16 113.889 61.44 113.833 61.664C113.833 61.944 113.777 62.616 113.665 63.68C113.553 64.744 113.497 65.724 113.497 66.62L113.245 69.056C113.189 69.728 113.105 70.344 112.993 70.904C112.881 71.464 112.685 71.884 112.405 72.164ZM155.125 69.14C153.277 68.188 152.353 66.676 152.353 64.604C152.353 63.708 152.549 62.532 152.941 61.076C153.445 59.116 154.117 57.24 154.957 55.448C155.405 54.384 155.853 53.208 156.301 51.92C156.749 50.632 157.113 49.232 157.393 47.72C158.513 45.144 159.493 42.652 160.333 40.244C161.229 37.78 161.789 36.212 162.013 35.54C162.069 35.148 162.993 33.02 164.785 29.156L166.213 26.132C167.557 22.38 168.789 19.356 169.909 17.06C171.085 14.764 172.541 12.3 174.277 9.668C175.173 8.212 176.517 7.484 178.309 7.484C179.373 7.484 180.325 7.736 181.165 8.24C182.005 8.744 182.565 9.444 182.845 10.34C183.349 11.516 183.713 12.804 183.937 14.204C184.217 15.604 184.413 18.096 184.525 21.68C184.581 22.8 184.609 24.424 184.609 26.552C184.721 31.256 184.861 34.84 185.029 37.304C185.197 39.712 185.561 41.924 186.121 43.94C186.457 46.18 186.653 47.664 186.709 48.392C187.045 51.024 187.353 53.068 187.633 54.524C187.913 55.98 188.193 56.708 188.473 56.708C189.145 56.708 190.069 55.14 191.245 52.004C192.477 48.868 194.297 42.4 196.705 32.6C197.041 31.48 197.433 29.856 197.881 27.728C198.329 25.6 198.665 23.528 198.889 21.512C199.505 19.216 200.093 16.836 200.653 14.372C201.269 11.852 201.577 10.48 201.577 10.256C201.577 9.976 201.577 9.696 201.577 9.416C201.633 9.136 201.633 8.8 201.577 8.408C201.801 8.408 202.025 8.044 202.249 7.316C202.529 6.588 202.669 5.916 202.669 5.3C202.669 3.676 203.061 2.472 203.845 1.688C204.461 0.567997 205.357 0.00799704 206.533 0.00799704C207.429 0.00799704 208.269 0.315996 209.053 0.931995C209.837 1.492 210.313 2.164 210.481 2.948C210.649 4.124 209.865 8.408 208.129 15.8C208.129 16.472 207.737 18.488 206.953 21.848C206.449 23.752 206.057 25.572 205.777 27.308C205.553 28.932 205.273 30.332 204.937 31.508C204.657 32.684 204.405 33.244 204.181 33.188C201.885 43.044 198.945 52.06 195.361 60.236C194.521 62.196 193.513 63.708 192.337 64.772C191.161 65.892 189.929 66.452 188.641 66.452C187.073 66.452 185.645 65.64 184.357 64.016C182.677 61.832 181.445 59.62 180.661 57.38C179.877 55.084 179.233 51.808 178.729 47.552C177.721 41.336 177.217 35.064 177.217 28.736V26.048C177.273 22.128 177.021 20.168 176.461 20.168C176.125 20.168 175.733 20.672 175.285 21.68C174.837 22.688 174.277 24.172 173.605 26.132C173.325 27.028 172.065 30.332 169.825 36.044L168.397 39.74C167.389 41.756 166.633 43.8 166.129 45.872C164.393 50.352 163.021 54.328 162.013 57.8C161.061 61.272 160.529 63.232 160.417 63.68C160.249 64.296 160.081 64.884 159.913 65.444C159.801 66.004 159.661 66.508 159.493 66.956C159.045 68.132 158.681 68.916 158.401 69.308C158.121 69.756 157.757 69.98 157.309 69.98C156.749 69.98 156.021 69.7 155.125 69.14ZM217.595 62C214.403 62 211.827 61.104 209.867 59.312C207.907 57.52 206.927 54.972 206.927 51.668C206.927 50.38 207.011 48.952 207.179 47.384C207.291 46.04 207.823 44.192 208.775 41.84C209.783 39.488 211.127 37.192 212.807 34.952C214.543 32.712 216.559 31.06 218.855 29.996C219.919 29.492 220.815 29.156 221.543 28.988C222.271 28.764 223.111 28.652 224.063 28.652C226.359 28.652 228.207 29.072 229.607 29.912C231.063 30.752 232.071 31.704 232.631 32.768C233.247 33.832 233.555 34.756 233.555 35.54V35.96V36.212C233.555 36.884 233.163 38.116 232.379 39.908C231.595 41.7 230.335 43.38 228.599 44.948C226.919 46.516 224.735 47.384 222.047 47.552C220.703 47.552 219.387 47.44 218.099 47.216C216.867 46.936 216.083 46.796 215.747 46.796C214.907 46.796 214.375 47.104 214.151 47.72C213.927 48.336 213.815 49.372 213.815 50.828C213.983 52.396 214.403 53.488 215.075 54.104C215.803 54.72 216.839 55.028 218.183 55.028C218.855 55.028 219.639 54.832 220.535 54.44C221.431 53.992 222.495 53.292 223.727 52.34C224.399 51.78 224.931 51.388 225.323 51.164C225.715 50.94 226.191 50.828 226.751 50.828C227.255 50.828 227.843 51.164 228.515 51.836C229.187 52.508 229.551 53.152 229.607 53.768C229.495 54.44 228.879 55.448 227.759 56.792C226.639 58.136 225.183 59.34 223.391 60.404C221.599 61.468 219.667 62 217.595 62ZM220.535 41.756C221.599 41.756 222.327 41.644 222.719 41.42C223.279 41.14 224.119 40.44 225.239 39.32C226.415 38.144 227.031 37.332 227.087 36.884C227.087 36.324 226.835 35.876 226.331 35.54C225.883 35.148 225.239 34.896 224.399 34.784H223.475C222.747 34.784 221.683 35.4 220.283 36.632C218.939 37.808 217.763 39.18 216.755 40.748C216.811 41.028 217.231 41.28 218.015 41.504C218.799 41.672 219.639 41.756 220.535 41.756ZM237.064 59.732C236.28 59.116 235.664 58.528 235.216 57.968C234.768 57.408 234.628 56.624 234.796 55.616C234.964 53.712 235.384 51.5 236.056 48.98L236.476 47.3C236.644 45.788 237.512 42.82 239.08 38.396C240.704 33.916 242.048 30.892 243.112 29.324C243.672 28.764 244.624 28.484 245.968 28.484C247.088 28.484 247.872 28.708 248.32 29.156C248.768 29.492 248.992 30.052 248.992 30.836C248.992 32.124 248.18 34.392 246.556 37.64L245.716 39.404C245.324 40.132 244.988 40.804 244.708 41.42C244.484 42.036 244.512 42.316 244.792 42.26C245.408 41.196 246.892 39.74 249.244 37.892C251.652 36.044 253.304 34.896 254.2 34.448C254.592 34.224 255.096 34 255.712 33.776C256.328 33.552 256.748 33.384 256.972 33.272C257.98 32.768 259.128 32.516 260.416 32.516C261.312 32.516 262.068 32.656 262.684 32.936C263.356 33.16 263.804 33.524 264.028 34.028C264.084 34.42 264.224 34.728 264.448 34.952C264.728 35.176 264.924 35.316 265.036 35.372C265.204 35.372 265.316 35.456 265.372 35.624C265.428 35.736 265.456 35.82 265.456 35.876C265.456 36.324 265.064 36.912 264.28 37.64C263.496 38.312 262.684 38.676 261.844 38.732C261.228 38.788 260.584 38.928 259.912 39.152C259.24 39.376 258.568 39.656 257.896 39.992L255.712 41.252C253.808 42.204 252.184 43.156 250.84 44.108C249.552 45.004 248.236 46.18 246.892 47.636C246.612 47.916 246.192 48.308 245.632 48.812C245.128 49.316 244.68 49.904 244.288 50.576C243.896 50.968 243.476 52.004 243.028 53.684C242.636 55.308 242.44 56.316 242.44 56.708C242.384 56.876 242.272 57.212 242.104 57.716C241.936 58.22 241.684 58.668 241.348 59.06C240.844 59.676 240.424 60.124 240.088 60.404C239.752 60.684 239.388 60.824 238.996 60.824C238.436 60.824 237.792 60.46 237.064 59.732ZM274.164 57.548C273.548 57.1 272.708 55.196 271.644 51.836C270.58 48.476 269.824 45.34 269.376 42.428C269.152 41.252 268.704 39.656 268.032 37.64C267.92 37.192 267.864 36.828 267.864 36.548C267.864 35.708 268.088 34.868 268.536 34.028C268.984 33.132 269.488 32.516 270.048 32.18C270.272 32.012 270.748 31.9 271.476 31.844C272.26 31.732 272.792 31.704 273.072 31.76C274.304 32.208 275.424 35.624 276.432 42.008C276.656 43.744 276.824 45.004 276.936 45.788C277.104 46.572 277.188 47.104 277.188 47.384C277.3 47.72 277.412 48.112 277.524 48.56C277.636 49.008 277.748 49.316 277.86 49.484C277.972 49.652 278.168 49.596 278.448 49.316C279.064 48.7 279.988 47.58 281.22 45.956C281.836 45.172 282.76 43.884 283.992 42.092L286.428 38.816C287.1 37.92 287.996 36.94 289.116 35.876C290.236 34.812 291.104 34.196 291.72 34.028C292.504 33.916 293.12 34.084 293.568 34.532C294.072 34.924 294.324 35.484 294.324 36.212C294.324 37.276 293.876 38.424 292.98 39.656C292.644 40.104 292.28 40.72 291.888 41.504C291.552 42.232 291.328 42.652 291.216 42.764C290.6 43.996 289.452 45.732 287.772 47.972C286.148 50.212 285.056 51.612 284.496 52.172C284.384 52.284 283.908 52.676 283.068 53.348C282.284 54.02 281.556 54.832 280.884 55.784C279.148 57.464 277.524 58.304 276.012 58.304C275.284 58.304 274.668 58.052 274.164 57.548ZM301.198 61.412C300.526 61.412 299.994 61.3 299.602 61.076C299.21 60.852 298.65 60.432 297.922 59.816C296.802 58.64 295.934 57.436 295.318 56.204C294.702 54.916 294.478 53.796 294.646 52.844C294.814 52.452 294.87 52.06 294.814 51.668C294.814 51.276 294.814 51.024 294.814 50.912C294.59 50.688 294.478 50.548 294.478 50.492C294.478 50.38 294.534 50.296 294.646 50.24C294.758 50.128 294.842 50.016 294.898 49.904C295.234 49.904 295.346 49.596 295.234 48.98C295.122 48.532 295.318 47.552 295.822 46.04C296.326 44.528 296.97 43.128 297.754 41.84C298.37 40.832 299.266 39.572 300.442 38.06C301.674 36.548 302.766 35.4 303.718 34.616C306.518 32.208 309.038 30.752 311.278 30.248C312.398 29.968 313.49 29.828 314.554 29.828C316.178 29.828 317.438 30.276 318.334 31.172C319.566 31.676 320.462 32.404 321.022 33.356C321.582 34.308 321.946 35.568 322.114 37.136C322.17 37.472 322.198 38.032 322.198 38.816C322.198 42.96 320.63 47.272 317.494 51.752C316.206 53.6 314.918 55.084 313.63 56.204C312.342 57.324 310.774 58.444 308.926 59.564C307.918 60.236 306.854 60.684 305.734 60.908C304.614 61.132 303.102 61.3 301.198 61.412ZM309.766 51.164C310.83 50.212 311.586 49.26 312.034 48.308C312.538 47.3 313.238 45.564 314.134 43.1C314.47 42.596 314.638 41.588 314.638 40.076C314.638 38.732 314.442 37.976 314.05 37.808C313.77 37.584 313.434 37.472 313.042 37.472C312.538 37.472 311.726 37.864 310.606 38.648C308.646 40.328 306.994 42.092 305.65 43.94C304.362 45.732 303.466 47.804 302.962 50.156C302.906 50.38 302.878 50.716 302.878 51.164C302.878 53.068 303.55 54.02 304.894 54.02C306.182 54.02 307.806 53.068 309.766 51.164ZM334.47 63.26C333.126 63.26 331.726 62.98 330.27 62.42C328.87 61.86 327.666 61.188 326.658 60.404C325.706 59.564 325.23 58.808 325.23 58.136C325.23 57.464 325.538 57.044 326.154 56.876L326.574 56.54C326.686 56.484 326.91 56.456 327.246 56.456C327.47 56.4 327.75 56.428 328.086 56.54C328.422 56.596 328.702 56.624 328.926 56.624C329.318 56.736 329.906 56.848 330.69 56.96L332.874 57.212C333.994 57.212 335.03 57.1 335.982 56.876C336.99 56.652 337.494 56.4 337.494 56.12C337.494 55.952 337.27 55.672 336.822 55.28C336.374 54.888 335.898 54.692 335.394 54.692C335.394 54.468 334.526 53.712 332.79 52.424C331.838 51.696 330.914 50.968 330.018 50.24C329.178 49.512 328.758 48.98 328.758 48.644L328.842 48.476V48.056C328.45 48.056 328.086 47.524 327.75 46.46C327.414 45.396 327.246 44.36 327.246 43.352C327.246 41.448 328.086 39.348 329.766 37.052C331.446 34.756 333.518 32.684 335.982 30.836C338.502 28.988 340.882 27.728 343.122 27.056C343.962 26.664 345.194 26.468 346.818 26.468C347.882 26.468 348.61 26.58 349.002 26.804L349.674 26.636C350.346 26.636 351.214 27.196 352.278 28.316C353.342 29.436 354.014 30.332 354.294 31.004C354.294 32.852 354.238 34.336 354.126 35.456C354.014 36.576 353.734 37.136 353.286 37.136C353.23 37.136 353.146 37.164 353.034 37.22C352.922 37.276 352.866 37.416 352.866 37.64C352.866 38.424 352.166 39.292 350.766 40.244C349.422 41.196 348.19 41.672 347.07 41.672L346.734 41.588C346.398 41.532 345.894 41.196 345.222 40.58C344.606 39.964 344.298 39.348 344.298 38.732C344.298 38.564 344.634 38.116 345.306 37.388C345.978 36.66 346.538 35.96 346.986 35.288C347.49 34.56 347.742 33.804 347.742 33.02C347.742 32.74 347.63 32.572 347.406 32.516C347.238 32.404 346.874 32.348 346.314 32.348C343.234 33.748 341.022 35.064 339.678 36.296C339.51 36.632 339.342 36.884 339.174 37.052C339.062 37.22 338.894 37.304 338.67 37.304C338.67 37.248 338.642 37.22 338.586 37.22C338.474 37.22 338.11 37.556 337.494 38.228C336.878 38.844 336.29 39.572 335.73 40.412C335.226 41.252 334.918 42.036 334.806 42.764L334.638 43.016V43.436C334.582 43.548 334.554 43.772 334.554 44.108C334.554 44.612 334.778 45.144 335.226 45.704C335.674 46.208 336.57 46.936 337.914 47.888C340.434 49.792 342.142 51.22 343.038 52.172C343.99 53.068 344.578 53.88 344.802 54.608C345.306 55.616 345.558 56.512 345.558 57.296C345.558 59.2 344.55 60.684 342.534 61.748C340.574 62.756 337.886 63.26 334.47 63.26ZM357.603 60.236C357.435 59.9 356.959 59.452 356.175 58.892C355.391 58.332 354.999 57.996 354.999 57.884C354.999 57.66 354.859 57.352 354.579 56.96C354.355 56.512 354.131 56.12 353.907 55.784C353.459 55.336 353.767 53.88 354.831 51.416C355.895 48.952 357.323 46.04 359.115 42.68C359.451 42.344 359.871 41.756 360.375 40.916C360.935 40.076 361.299 39.6 361.467 39.488C361.467 39.264 361.551 39.068 361.719 38.9C361.887 38.676 362.083 38.564 362.307 38.564L362.979 37.22C363.203 36.716 364.295 35.512 366.255 33.608C368.215 31.704 369.755 30.416 370.875 29.744C371.939 29.016 373.087 28.652 374.319 28.652C375.663 28.652 376.811 29.044 377.763 29.828L380.031 31.76C381.711 33.16 382.663 33.972 382.887 34.196L385.995 36.968L384.567 41.168C384.063 42.68 383.811 44.108 383.811 45.452C383.811 47.58 384.399 49.568 385.575 51.416C385.855 52.032 386.219 52.508 386.667 52.844C387.171 53.18 387.815 53.404 388.599 53.516C389.831 53.74 390.447 54.356 390.447 55.364C390.447 56.596 390.223 57.52 389.775 58.136C389.327 58.752 388.795 59.144 388.179 59.312C387.283 59.424 386.667 59.48 386.331 59.48C384.707 59.48 383.223 59.06 381.879 58.22C380.535 57.38 379.359 55.952 378.351 53.936C378.127 53.6 377.819 52.984 377.427 52.088C377.091 51.192 376.895 50.576 376.839 50.24C376.447 50.8 375.803 51.528 374.907 52.424C369.139 58.248 364.463 61.16 360.879 61.16C359.647 61.16 358.555 60.852 357.603 60.236ZM362.223 53.264C363.119 53.376 364.855 52.368 367.431 50.24C367.711 50.016 368.019 49.764 368.355 49.484C368.691 49.148 369.055 48.812 369.447 48.476C371.015 47.188 372.219 46.124 373.059 45.284C373.955 44.388 374.851 43.324 375.747 42.092L377.595 39.068C377.035 37.836 376.531 37.024 376.083 36.632C375.635 36.184 375.187 35.96 374.739 35.96C373.619 35.96 372.219 36.968 370.539 38.984C368.859 40.944 366.843 43.94 364.491 47.972C363.875 48.98 363.371 50.044 362.979 51.164C362.587 52.228 362.335 52.928 362.223 53.264Z" fill="#6F2D15"/>
</svg>
