<svg width="114" height="21" viewBox="0 0 114 21" fill="none" xmlns="http://www.w3.org/2000/svg">
<path d="M3.304 19.584C2.808 19.408 2.328 19.152 1.864 18.816C1.416 18.48 1.088 18.056 0.88 17.544C0.624 16.824 0.496 15.976 0.496 15C0.496 14.056 0.552 13.256 0.664 12.6C0.776 11.928 0.968 11.248 1.24 10.56L1.456 10.056C1.712 9.4 1.896 8.968 2.008 8.76C2.28 8.136 2.76 7.328 3.448 6.336C4.088 5.376 4.592 4.664 4.96 4.2C5.344 3.72 5.736 3.312 6.136 2.976C6.536 2.624 7.12 2.184 7.888 1.656C8.352 1.32 8.92 1.152 9.592 1.152C10.12 1.152 10.6 1.28 11.032 1.536C11.48 1.792 11.816 2.192 12.04 2.736C12.2 3.008 12.28 3.384 12.28 3.864C12.28 4.632 12.096 5.464 11.728 6.36C11.36 7.256 10.92 7.936 10.408 8.4C10.296 8.512 10.144 8.568 9.952 8.568C9.76 8.568 9.552 8.512 9.328 8.4C9.104 8.288 8.904 8.152 8.728 7.992C8.584 7.72 8.504 7.56 8.488 7.512C8.472 7.464 8.504 7.432 8.584 7.416C8.728 7.24 8.936 6.904 9.208 6.408C9.496 5.896 9.688 5.496 9.784 5.208L9.928 4.536C10.024 4.12 10.072 3.848 10.072 3.72C10.072 3.576 10.016 3.448 9.904 3.336C9.856 3.288 9.792 3.264 9.712 3.264C9.584 3.264 9.36 3.344 9.04 3.504C8.672 3.664 8.232 3.992 7.72 4.488C7.224 4.968 6.728 5.544 6.232 6.216C5.496 7.176 4.928 7.968 4.528 8.592C4.144 9.216 3.848 9.848 3.64 10.488L3.376 11.112C3.392 11.176 3.368 11.336 3.304 11.592C3.24 11.848 3.168 12.056 3.088 12.216C2.864 13.144 2.752 13.984 2.752 14.736C2.752 15.328 2.808 15.84 2.92 16.272C3.048 16.704 3.224 17.024 3.448 17.232C3.576 17.344 3.76 17.4 4 17.4C4.256 17.4 4.544 17.344 4.864 17.232C5.2 17.104 5.552 16.96 5.92 16.8C6.288 16.64 6.544 16.528 6.688 16.464C7.056 16.32 7.4 16.152 7.72 15.96C8.056 15.768 8.304 15.592 8.464 15.432C8.88 15.128 9.216 14.976 9.472 14.976C9.68 14.912 9.84 14.976 9.952 15.168C10.08 15.36 10.144 15.624 10.144 15.96C10.144 16.184 9.992 16.456 9.688 16.776C9.384 17.08 9.024 17.352 8.608 17.592C8.432 17.768 8.04 17.976 7.432 18.216C6.92 18.584 6.32 18.912 5.632 19.2C4.96 19.488 4.344 19.632 3.784 19.632C3.656 19.632 3.496 19.616 3.304 19.584ZM12.8995 17.088C12.6115 17.04 12.3475 16.88 12.1075 16.608C11.8675 16.336 11.7475 16.024 11.7475 15.672C11.7475 15.288 11.9875 14.304 12.4675 12.72C12.5475 12.304 12.7235 11.768 12.9955 11.112C13.0915 10.84 13.1475 10.68 13.1635 10.632C13.4515 9.672 13.8435 8.496 14.3395 7.104L14.5555 6.528C15.1155 5.008 15.4515 4.08 15.5635 3.744L15.9475 2.688C15.9475 2.56 16.0355 2.44 16.2115 2.328C16.4035 2.2 16.5635 2.136 16.6915 2.136C16.9475 2.136 17.1955 2.304 17.4355 2.64C17.6755 2.976 17.8035 3.328 17.8195 3.696C17.8195 3.888 17.7795 4.064 17.6995 4.224C17.3315 5.024 16.8755 6.264 16.3315 7.944C16.0915 8.648 15.8515 9.32 15.6115 9.96C15.3715 10.584 15.1795 11.032 15.0355 11.304L14.7715 11.832L14.4355 13.104C14.4355 13.152 14.4275 13.192 14.4115 13.224C14.3955 13.256 14.3875 13.28 14.3875 13.296C14.3875 13.344 14.3955 13.368 14.4115 13.368L14.8195 12.96C15.2835 12.496 15.8355 12.024 16.4755 11.544C17.0035 11.176 17.2755 10.968 17.2915 10.92C17.3075 10.872 17.3715 10.8 17.4835 10.704L17.7235 10.512C18.2355 10.144 18.7875 9.96 19.3795 9.96C19.5555 9.96 19.7635 10.048 20.0035 10.224C20.2435 10.4 20.4435 10.648 20.6035 10.968C20.7795 11.272 20.8675 11.6 20.8675 11.952V12.144V12.312C20.8675 12.712 20.7875 13.24 20.6275 13.896C20.4835 14.536 20.4035 14.904 20.3875 15C20.4675 15 20.5875 14.984 20.7475 14.952C20.9875 14.952 21.1555 14.976 21.2515 15.024C21.3635 15.072 21.4595 15.136 21.5395 15.216C21.6195 15.296 21.6915 15.344 21.7555 15.36C21.7875 15.392 21.8035 15.44 21.8035 15.504C21.8035 15.872 21.6035 16.192 21.2035 16.464C20.8035 16.736 20.4195 16.888 20.0515 16.92C19.6035 16.92 19.2435 16.752 18.9715 16.416C18.6995 16.08 18.5635 15.672 18.5635 15.192C18.5635 15 18.5715 14.808 18.5875 14.616C18.6035 14.424 18.6195 14.256 18.6355 14.112C18.6835 13.792 18.7075 13.536 18.7075 13.344C18.7075 13.136 18.6835 13 18.6355 12.936C18.6035 12.856 18.5395 12.816 18.4435 12.816C18.1235 12.816 17.5635 13.112 16.7635 13.704C15.9795 14.28 15.1795 15.032 14.3635 15.96C13.8515 16.712 13.3635 17.088 12.8995 17.088ZM26.4332 18C25.5212 18 24.7852 17.744 24.2252 17.232C23.6652 16.72 23.3852 15.992 23.3852 15.048C23.3852 14.68 23.4092 14.272 23.4572 13.824C23.4892 13.44 23.6412 12.912 23.9132 12.24C24.2012 11.568 24.5852 10.912 25.0652 10.272C25.5612 9.632 26.1372 9.16 26.7932 8.856C27.0972 8.712 27.3532 8.616 27.5612 8.568C27.7692 8.504 28.0092 8.472 28.2812 8.472C28.9372 8.472 29.4652 8.592 29.8652 8.832C30.2812 9.072 30.5692 9.344 30.7292 9.648C30.9052 9.952 30.9932 10.216 30.9932 10.44V10.56V10.632C30.9932 10.824 30.8812 11.176 30.6572 11.688C30.4332 12.2 30.0732 12.68 29.5772 13.128C29.0972 13.576 28.4732 13.824 27.7052 13.872C27.3212 13.872 26.9452 13.84 26.5772 13.776C26.2252 13.696 26.0012 13.656 25.9052 13.656C25.6652 13.656 25.5132 13.744 25.4492 13.92C25.3852 14.096 25.3532 14.392 25.3532 14.808C25.4012 15.256 25.5212 15.568 25.7132 15.744C25.9212 15.92 26.2172 16.008 26.6012 16.008C26.7932 16.008 27.0172 15.952 27.2732 15.84C27.5292 15.712 27.8332 15.512 28.1852 15.24C28.3772 15.08 28.5292 14.968 28.6412 14.904C28.7532 14.84 28.8892 14.808 29.0492 14.808C29.1932 14.808 29.3612 14.904 29.5532 15.096C29.7452 15.288 29.8492 15.472 29.8652 15.648C29.8332 15.84 29.6572 16.128 29.3372 16.512C29.0172 16.896 28.6012 17.24 28.0892 17.544C27.5772 17.848 27.0252 18 26.4332 18ZM27.2732 12.216C27.5772 12.216 27.7852 12.184 27.8972 12.12C28.0572 12.04 28.2972 11.84 28.6172 11.52C28.9532 11.184 29.1292 10.952 29.1452 10.824C29.1452 10.664 29.0732 10.536 28.9292 10.44C28.8012 10.328 28.6172 10.256 28.3772 10.224H28.1132C27.9052 10.224 27.6012 10.4 27.2012 10.752C26.8172 11.088 26.4812 11.48 26.1932 11.928C26.2092 12.008 26.3292 12.08 26.5532 12.144C26.7772 12.192 27.0172 12.216 27.2732 12.216ZM32.7749 20.904C32.6789 20.968 32.4549 20.888 32.1029 20.664C31.7669 20.456 31.4869 20.224 31.2629 19.968C31.1669 19.872 31.1029 19.776 31.0709 19.68C31.0389 19.6 31.0229 19.488 31.0229 19.344L31.0709 18.744C31.1509 18.504 31.1909 18.224 31.1909 17.904C31.1909 17.776 31.2469 17.376 31.3589 16.704C31.4709 16.016 31.5589 15.52 31.6229 15.216L31.6949 14.928C31.8229 14.4 31.9189 13.912 31.9829 13.464C32.1109 13.064 32.2149 12.672 32.2949 12.288C32.3909 11.888 32.4389 11.616 32.4389 11.472C32.4389 11.184 32.5509 10.976 32.7749 10.848C32.7909 10.72 32.9109 10.456 33.1349 10.056C33.5189 8.968 33.7989 8.192 33.9749 7.728C34.1669 7.248 34.3669 6.832 34.5749 6.48C34.8629 5.68 35.0949 5.176 35.2709 4.968C35.3829 4.696 35.6869 4.296 36.1829 3.768C36.6789 3.24 37.1189 2.816 37.5029 2.496C38.3029 2.08 38.9749 1.872 39.5189 1.872C39.9829 1.872 40.5189 2.16 41.1269 2.736C41.3509 2.976 41.4789 3.136 41.5109 3.216C41.5429 3.296 41.5589 3.448 41.5589 3.672C41.4949 3.976 41.2149 4.512 40.7189 5.28C40.2229 6.048 39.9109 6.44 39.7829 6.456C39.5909 6.52 39.4629 6.552 39.3989 6.552C39.2549 6.552 39.1349 6.504 39.0389 6.408C38.9429 6.312 38.8949 6.168 38.8949 5.976C38.8949 5.672 38.9909 5.32 39.1829 4.92C39.3749 4.664 39.4709 4.44 39.4709 4.248C39.4709 3.976 39.2549 3.84 38.8229 3.84C38.6949 3.904 38.4389 4.136 38.0549 4.536C37.6869 4.92 37.5029 5.16 37.5029 5.256C37.4869 5.288 37.4389 5.376 37.3589 5.52C37.2949 5.648 37.1909 5.8 37.0469 5.976C36.7589 6.376 36.6149 6.624 36.6149 6.72C36.6149 6.928 36.5669 7.032 36.4709 7.032C36.4549 7.064 36.4149 7.16 36.3509 7.32C36.3029 7.464 36.2309 7.624 36.1349 7.8C36.0709 7.944 35.9909 8.104 35.8949 8.28C35.7989 8.456 35.7189 8.576 35.6549 8.64H35.6789C35.6309 8.752 35.5429 8.968 35.4149 9.288C35.2869 9.592 35.2229 9.768 35.2229 9.816C35.2229 9.88 35.3189 9.912 35.5109 9.912C35.8629 9.912 36.3589 9.824 36.9989 9.648C37.2069 9.584 37.3589 9.552 37.4549 9.552C37.5669 9.552 37.7269 9.584 37.9349 9.648C38.1109 9.76 38.2549 10.008 38.3669 10.392C38.4789 10.776 38.5029 11.016 38.4389 11.112C38.4229 11.176 38.2469 11.264 37.9109 11.376C37.5909 11.488 37.2549 11.576 36.9029 11.64L35.9189 11.856C35.0069 12.048 34.5509 12.176 34.5509 12.24C34.4869 12.24 34.4309 12.272 34.3829 12.336C34.3349 12.4 34.3109 12.464 34.3109 12.528C34.3109 12.752 34.2789 12.92 34.2149 13.032C34.1349 13.256 33.9989 13.792 33.8069 14.64C33.6309 15.488 33.5429 16.008 33.5429 16.2C33.4149 16.36 33.3509 16.648 33.3509 17.064C33.2549 17.24 33.2069 17.44 33.2069 17.664C33.2069 17.76 33.1989 17.84 33.1829 17.904C33.1829 17.984 33.1669 18.176 33.1349 18.48C33.1029 18.784 33.0869 19.064 33.0869 19.32L33.0149 20.016C32.9989 20.208 32.9749 20.384 32.9429 20.544C32.9109 20.704 32.8549 20.824 32.7749 20.904ZM45.1947 20.04C44.6667 19.768 44.4027 19.336 44.4027 18.744C44.4027 18.488 44.4587 18.152 44.5707 17.736C44.7147 17.176 44.9067 16.64 45.1467 16.128C45.2747 15.824 45.4027 15.488 45.5307 15.12C45.6587 14.752 45.7627 14.352 45.8427 13.92C46.1627 13.184 46.4427 12.472 46.6827 11.784C46.9387 11.08 47.0987 10.632 47.1627 10.44C47.1787 10.328 47.4427 9.72 47.9547 8.616L48.3627 7.752C48.7467 6.68 49.0987 5.816 49.4187 5.16C49.7547 4.504 50.1707 3.8 50.6667 3.048C50.9227 2.632 51.3067 2.424 51.8187 2.424C52.1227 2.424 52.3947 2.496 52.6347 2.64C52.8747 2.784 53.0347 2.984 53.1147 3.24C53.2587 3.576 53.3627 3.944 53.4267 4.344C53.5067 4.744 53.5627 5.456 53.5947 6.48C53.6107 6.8 53.6187 7.264 53.6187 7.872C53.6507 9.216 53.6907 10.24 53.7387 10.944C53.7867 11.632 53.8907 12.264 54.0507 12.84C54.1467 13.48 54.2027 13.904 54.2187 14.112C54.3147 14.864 54.4027 15.448 54.4827 15.864C54.5627 16.28 54.6427 16.488 54.7227 16.488C54.9147 16.488 55.1787 16.04 55.5147 15.144C55.8667 14.248 56.3867 12.4 57.0747 9.6C57.1707 9.28 57.2827 8.816 57.4107 8.208C57.5387 7.6 57.6347 7.008 57.6987 6.432C57.8747 5.776 58.0427 5.096 58.2027 4.392C58.3787 3.672 58.4667 3.28 58.4667 3.216C58.4667 3.136 58.4667 3.056 58.4667 2.976C58.4827 2.896 58.4827 2.8 58.4667 2.688C58.5307 2.688 58.5947 2.584 58.6587 2.376C58.7387 2.168 58.7787 1.976 58.7787 1.8C58.7787 1.336 58.8907 0.991999 59.1147 0.767999C59.2907 0.447999 59.5467 0.287999 59.8827 0.287999C60.1387 0.287999 60.3787 0.375999 60.6027 0.551999C60.8267 0.711999 60.9627 0.904 61.0107 1.128C61.0587 1.464 60.8347 2.688 60.3387 4.8C60.3387 4.992 60.2267 5.568 60.0027 6.528C59.8587 7.072 59.7467 7.592 59.6667 8.088C59.6027 8.552 59.5227 8.952 59.4267 9.288C59.3467 9.624 59.2747 9.784 59.2107 9.768C58.5547 12.584 57.7147 15.16 56.6907 17.496C56.4507 18.056 56.1627 18.488 55.8267 18.792C55.4907 19.112 55.1387 19.272 54.7707 19.272C54.3227 19.272 53.9147 19.04 53.5467 18.576C53.0667 17.952 52.7147 17.32 52.4907 16.68C52.2667 16.024 52.0827 15.088 51.9387 13.872C51.6507 12.096 51.5067 10.304 51.5067 8.496V7.728C51.5227 6.608 51.4507 6.048 51.2907 6.048C51.1947 6.048 51.0827 6.192 50.9547 6.48C50.8267 6.768 50.6667 7.192 50.4747 7.752C50.3947 8.008 50.0347 8.952 49.3947 10.584L48.9867 11.64C48.6987 12.216 48.4827 12.8 48.3387 13.392C47.8427 14.672 47.4507 15.808 47.1627 16.8C46.8907 17.792 46.7387 18.352 46.7067 18.48C46.6587 18.656 46.6107 18.824 46.5627 18.984C46.5307 19.144 46.4907 19.288 46.4427 19.416C46.3147 19.752 46.2107 19.976 46.1307 20.088C46.0507 20.216 45.9467 20.28 45.8187 20.28C45.6587 20.28 45.4507 20.2 45.1947 20.04ZM63.1504 18C62.2384 18 61.5024 17.744 60.9424 17.232C60.3824 16.72 60.1024 15.992 60.1024 15.048C60.1024 14.68 60.1264 14.272 60.1744 13.824C60.2064 13.44 60.3584 12.912 60.6304 12.24C60.9184 11.568 61.3024 10.912 61.7824 10.272C62.2784 9.632 62.8544 9.16 63.5104 8.856C63.8144 8.712 64.0704 8.616 64.2784 8.568C64.4864 8.504 64.7264 8.472 64.9984 8.472C65.6544 8.472 66.1824 8.592 66.5824 8.832C66.9984 9.072 67.2864 9.344 67.4464 9.648C67.6224 9.952 67.7104 10.216 67.7104 10.44V10.56V10.632C67.7104 10.824 67.5984 11.176 67.3744 11.688C67.1504 12.2 66.7904 12.68 66.2944 13.128C65.8144 13.576 65.1904 13.824 64.4224 13.872C64.0384 13.872 63.6624 13.84 63.2944 13.776C62.9424 13.696 62.7184 13.656 62.6224 13.656C62.3824 13.656 62.2304 13.744 62.1664 13.92C62.1024 14.096 62.0704 14.392 62.0704 14.808C62.1184 15.256 62.2384 15.568 62.4304 15.744C62.6384 15.92 62.9344 16.008 63.3184 16.008C63.5104 16.008 63.7344 15.952 63.9904 15.84C64.2464 15.712 64.5504 15.512 64.9024 15.24C65.0944 15.08 65.2464 14.968 65.3584 14.904C65.4704 14.84 65.6064 14.808 65.7664 14.808C65.9104 14.808 66.0784 14.904 66.2704 15.096C66.4624 15.288 66.5664 15.472 66.5824 15.648C66.5504 15.84 66.3744 16.128 66.0544 16.512C65.7344 16.896 65.3184 17.24 64.8064 17.544C64.2944 17.848 63.7424 18 63.1504 18ZM63.9904 12.216C64.2944 12.216 64.5024 12.184 64.6144 12.12C64.7744 12.04 65.0144 11.84 65.3344 11.52C65.6704 11.184 65.8464 10.952 65.8624 10.824C65.8624 10.664 65.7904 10.536 65.6464 10.44C65.5184 10.328 65.3344 10.256 65.0944 10.224H64.8304C64.6224 10.224 64.3184 10.4 63.9184 10.752C63.5344 11.088 63.1984 11.48 62.9104 11.928C62.9264 12.008 63.0464 12.08 63.2704 12.144C63.4944 12.192 63.7344 12.216 63.9904 12.216ZM68.8201 17.352C68.5961 17.176 68.4201 17.008 68.2921 16.848C68.1641 16.688 68.1241 16.464 68.1721 16.176C68.2201 15.632 68.3401 15 68.5321 14.28L68.6521 13.8C68.7001 13.368 68.9481 12.52 69.3961 11.256C69.8601 9.976 70.2441 9.112 70.5481 8.664C70.7081 8.504 70.9801 8.424 71.3641 8.424C71.6841 8.424 71.9081 8.488 72.0361 8.616C72.1641 8.712 72.2281 8.872 72.2281 9.096C72.2281 9.464 71.9961 10.112 71.5321 11.04L71.2921 11.544C71.1801 11.752 71.0841 11.944 71.0041 12.12C70.9401 12.296 70.9481 12.376 71.0281 12.36C71.2041 12.056 71.6281 11.64 72.3001 11.112C72.9881 10.584 73.4601 10.256 73.7161 10.128C73.8281 10.064 73.9721 10 74.1481 9.936C74.3241 9.872 74.4441 9.824 74.5081 9.792C74.7961 9.648 75.1241 9.576 75.4921 9.576C75.7481 9.576 75.9641 9.616 76.1401 9.696C76.3321 9.76 76.4601 9.864 76.5241 10.008C76.5401 10.12 76.5801 10.208 76.6441 10.272C76.7241 10.336 76.7801 10.376 76.8121 10.392C76.8601 10.392 76.8921 10.416 76.9081 10.464C76.9241 10.496 76.9321 10.52 76.9321 10.536C76.9321 10.664 76.8201 10.832 76.5961 11.04C76.3721 11.232 76.1401 11.336 75.9001 11.352C75.7241 11.368 75.5401 11.408 75.3481 11.472C75.1561 11.536 74.9641 11.616 74.7721 11.712L74.1481 12.072C73.6041 12.344 73.1401 12.616 72.7561 12.888C72.3881 13.144 72.0121 13.48 71.6281 13.896C71.5481 13.976 71.4281 14.088 71.2681 14.232C71.1241 14.376 70.9961 14.544 70.8841 14.736C70.7721 14.848 70.6521 15.144 70.5241 15.624C70.4121 16.088 70.3561 16.376 70.3561 16.488C70.3401 16.536 70.3081 16.632 70.2601 16.776C70.2121 16.92 70.1401 17.048 70.0441 17.16C69.9001 17.336 69.7801 17.464 69.6841 17.544C69.5881 17.624 69.4841 17.664 69.3721 17.664C69.2121 17.664 69.0281 17.56 68.8201 17.352ZM79.5272 16.728C79.3512 16.6 79.1112 16.056 78.8072 15.096C78.5032 14.136 78.2872 13.24 78.1592 12.408C78.0952 12.072 77.9672 11.616 77.7752 11.04C77.7432 10.912 77.7272 10.808 77.7272 10.728C77.7272 10.488 77.7912 10.248 77.9192 10.008C78.0472 9.752 78.1912 9.576 78.3512 9.48C78.4152 9.432 78.5512 9.4 78.7592 9.384C78.9832 9.352 79.1352 9.344 79.2152 9.36C79.5672 9.488 79.8872 10.464 80.1752 12.288C80.2392 12.784 80.2872 13.144 80.3192 13.368C80.3672 13.592 80.3912 13.744 80.3912 13.824C80.4232 13.92 80.4552 14.032 80.4872 14.16C80.5192 14.288 80.5512 14.376 80.5832 14.424C80.6152 14.472 80.6712 14.456 80.7512 14.376C80.9272 14.2 81.1912 13.88 81.5432 13.416C81.7192 13.192 81.9832 12.824 82.3352 12.312L83.0312 11.376C83.2232 11.12 83.4792 10.84 83.7992 10.536C84.1192 10.232 84.3672 10.056 84.5432 10.008C84.7672 9.976 84.9432 10.024 85.0712 10.152C85.2152 10.264 85.2872 10.424 85.2872 10.632C85.2872 10.936 85.1592 11.264 84.9032 11.616C84.8072 11.744 84.7032 11.92 84.5912 12.144C84.4952 12.352 84.4312 12.472 84.3992 12.504C84.2232 12.856 83.8952 13.352 83.4152 13.992C82.9512 14.632 82.6392 15.032 82.4792 15.192C82.4472 15.224 82.3112 15.336 82.0712 15.528C81.8472 15.72 81.6392 15.952 81.4472 16.224C80.9512 16.704 80.4872 16.944 80.0552 16.944C79.8472 16.944 79.6712 16.872 79.5272 16.728ZM87.3586 17.832C87.1666 17.832 87.0146 17.8 86.9026 17.736C86.7906 17.672 86.6306 17.552 86.4226 17.376C86.1026 17.04 85.8546 16.696 85.6786 16.344C85.5026 15.976 85.4386 15.656 85.4866 15.384C85.5346 15.272 85.5506 15.16 85.5346 15.048C85.5346 14.936 85.5346 14.864 85.5346 14.832C85.4706 14.768 85.4386 14.728 85.4386 14.712C85.4386 14.68 85.4546 14.656 85.4866 14.64C85.5186 14.608 85.5426 14.576 85.5586 14.544C85.6546 14.544 85.6866 14.456 85.6546 14.28C85.6226 14.152 85.6786 13.872 85.8226 13.44C85.9666 13.008 86.1506 12.608 86.3746 12.24C86.5506 11.952 86.8066 11.592 87.1426 11.16C87.4946 10.728 87.8066 10.4 88.0786 10.176C88.8786 9.488 89.5986 9.072 90.2386 8.928C90.5586 8.848 90.8706 8.808 91.1746 8.808C91.6386 8.808 91.9986 8.936 92.2546 9.192C92.6066 9.336 92.8626 9.544 93.0226 9.816C93.1826 10.088 93.2866 10.448 93.3346 10.896C93.3506 10.992 93.3586 11.152 93.3586 11.376C93.3586 12.56 92.9106 13.792 92.0146 15.072C91.6466 15.6 91.2786 16.024 90.9106 16.344C90.5426 16.664 90.0946 16.984 89.5666 17.304C89.2786 17.496 88.9746 17.624 88.6546 17.688C88.3346 17.752 87.9026 17.8 87.3586 17.832ZM89.8066 14.904C90.1106 14.632 90.3266 14.36 90.4546 14.088C90.5986 13.8 90.7986 13.304 91.0546 12.6C91.1506 12.456 91.1986 12.168 91.1986 11.736C91.1986 11.352 91.1426 11.136 91.0306 11.088C90.9506 11.024 90.8546 10.992 90.7426 10.992C90.5986 10.992 90.3666 11.104 90.0466 11.328C89.4866 11.808 89.0146 12.312 88.6306 12.84C88.2626 13.352 88.0066 13.944 87.8626 14.616C87.8466 14.68 87.8386 14.776 87.8386 14.904C87.8386 15.448 88.0306 15.72 88.4146 15.72C88.7826 15.72 89.2466 15.448 89.8066 14.904ZM96.9719 18.36C96.5879 18.36 96.1879 18.28 95.7719 18.12C95.3719 17.96 95.0279 17.768 94.7399 17.544C94.4679 17.304 94.3319 17.088 94.3319 16.896C94.3319 16.704 94.4199 16.584 94.5959 16.536L94.7159 16.44C94.7479 16.424 94.8119 16.416 94.9079 16.416C94.9719 16.4 95.0519 16.408 95.1479 16.44C95.2439 16.456 95.3239 16.464 95.3879 16.464C95.4999 16.496 95.6679 16.528 95.8919 16.56L96.5159 16.632C96.8359 16.632 97.1319 16.6 97.4039 16.536C97.6919 16.472 97.8359 16.4 97.8359 16.32C97.8359 16.272 97.7719 16.192 97.6439 16.08C97.5159 15.968 97.3799 15.912 97.2359 15.912C97.2359 15.848 96.9879 15.632 96.4919 15.264C96.2199 15.056 95.9559 14.848 95.6999 14.64C95.4599 14.432 95.3399 14.28 95.3399 14.184L95.3639 14.136V14.016C95.2519 14.016 95.1479 13.864 95.0519 13.56C94.9559 13.256 94.9079 12.96 94.9079 12.672C94.9079 12.128 95.1479 11.528 95.6279 10.872C96.1079 10.216 96.6999 9.624 97.4039 9.096C98.1239 8.568 98.8039 8.208 99.4439 8.016C99.6839 7.904 100.036 7.848 100.5 7.848C100.804 7.848 101.012 7.88 101.124 7.944L101.316 7.896C101.508 7.896 101.756 8.056 102.06 8.376C102.364 8.696 102.556 8.952 102.636 9.144C102.636 9.672 102.62 10.096 102.588 10.416C102.556 10.736 102.476 10.896 102.348 10.896C102.332 10.896 102.308 10.904 102.276 10.92C102.244 10.936 102.228 10.976 102.228 11.04C102.228 11.264 102.028 11.512 101.628 11.784C101.244 12.056 100.892 12.192 100.572 12.192L100.476 12.168C100.38 12.152 100.236 12.056 100.044 11.88C99.8679 11.704 99.7799 11.528 99.7799 11.352C99.7799 11.304 99.8759 11.176 100.068 10.968C100.26 10.76 100.42 10.56 100.548 10.368C100.692 10.16 100.764 9.944 100.764 9.72C100.764 9.64 100.732 9.592 100.668 9.576C100.62 9.544 100.516 9.528 100.356 9.528C99.4759 9.928 98.8439 10.304 98.4599 10.656C98.4119 10.752 98.3639 10.824 98.3159 10.872C98.2839 10.92 98.2359 10.944 98.1719 10.944C98.1719 10.928 98.1639 10.92 98.1479 10.92C98.1159 10.92 98.0119 11.016 97.8359 11.208C97.6599 11.384 97.4919 11.592 97.3319 11.832C97.1879 12.072 97.0999 12.296 97.0679 12.504L97.0199 12.576V12.696C97.0039 12.728 96.9959 12.792 96.9959 12.888C96.9959 13.032 97.0599 13.184 97.1879 13.344C97.3159 13.488 97.5719 13.696 97.9559 13.968C98.6759 14.512 99.1639 14.92 99.4199 15.192C99.6919 15.448 99.8599 15.68 99.9239 15.888C100.068 16.176 100.14 16.432 100.14 16.656C100.14 17.2 99.8519 17.624 99.2759 17.928C98.7159 18.216 97.9479 18.36 96.9719 18.36ZM103.689 17.496C103.641 17.4 103.505 17.272 103.281 17.112C103.057 16.952 102.945 16.856 102.945 16.824C102.945 16.76 102.905 16.672 102.825 16.56C102.761 16.432 102.697 16.32 102.633 16.224C102.505 16.096 102.593 15.68 102.897 14.976C103.201 14.272 103.609 13.44 104.121 12.48C104.217 12.384 104.337 12.216 104.481 11.976C104.641 11.736 104.745 11.6 104.793 11.568C104.793 11.504 104.817 11.448 104.865 11.4C104.913 11.336 104.969 11.304 105.033 11.304L105.225 10.92C105.289 10.776 105.601 10.432 106.161 9.888C106.721 9.344 107.161 8.976 107.481 8.784C107.785 8.576 108.113 8.472 108.465 8.472C108.849 8.472 109.177 8.584 109.449 8.808L110.097 9.36C110.577 9.76 110.849 9.992 110.913 10.056L111.801 10.848L111.393 12.048C111.249 12.48 111.177 12.888 111.177 13.272C111.177 13.88 111.345 14.448 111.681 14.976C111.761 15.152 111.865 15.288 111.993 15.384C112.137 15.48 112.321 15.544 112.545 15.576C112.897 15.64 113.073 15.816 113.073 16.104C113.073 16.456 113.009 16.72 112.881 16.896C112.753 17.072 112.601 17.184 112.425 17.232C112.169 17.264 111.993 17.28 111.897 17.28C111.433 17.28 111.009 17.16 110.625 16.92C110.241 16.68 109.905 16.272 109.617 15.696C109.553 15.6 109.465 15.424 109.353 15.168C109.257 14.912 109.201 14.736 109.185 14.64C109.073 14.8 108.889 15.008 108.633 15.264C106.985 16.928 105.649 17.76 104.625 17.76C104.273 17.76 103.961 17.672 103.689 17.496ZM105.009 15.504C105.265 15.536 105.761 15.248 106.497 14.64C106.577 14.576 106.665 14.504 106.761 14.424C106.857 14.328 106.961 14.232 107.073 14.136C107.521 13.768 107.865 13.464 108.105 13.224C108.361 12.968 108.617 12.664 108.873 12.312L109.401 11.448C109.241 11.096 109.097 10.864 108.969 10.752C108.841 10.624 108.713 10.56 108.585 10.56C108.265 10.56 107.865 10.848 107.385 11.424C106.905 11.984 106.329 12.84 105.657 13.992C105.481 14.28 105.337 14.584 105.225 14.904C105.113 15.208 105.041 15.408 105.009 15.504Z" fill="white"/>
</svg>
