<svg width="362" height="640" viewBox="0 0 362 640" fill="none" xmlns="http://www.w3.org/2000/svg">
<g clip-path="url(#clip0)">
<path d="M152.05 128.99C134.46 51.36 111.97 192.19 142.97 211.61C145.16 227.27 158.38 155.3 152.05 128.99ZM148.45 166.81C138.78 235.98 127.8 169.87 135.3 124.9C138.97 98.45 153.52 130.18 148.45 166.81Z" fill="#F7EFE2"/>
<path d="M176.65 131.37C130.43 -79.96 72.08 182.17 117.65 237.7C177.45 285.83 187.03 172.61 176.65 131.37ZM174.59 184.31C177.72 240.58 126.59 274.05 108.16 202.96C97.46 160.68 122.16 -29.15 164.56 100.89C173.36 129.32 174.87 150.96 174.59 184.31Z" fill="#F7EFE2"/>
<path d="M193.95 123.15C144.25 -48 116.22 0.340004 128.81 -143.68C102.42 -71.15 138.03 -4.68 170.09 63.02C247.75 251.02 80.56 431.8 141.76 628.82C143.19 650.53 153.84 699.33 152.32 664.58C90.45 366.29 226.79 283.49 193.95 123.15Z" fill="#F7EFE2"/>
<path d="M150.32 -131.64C148.46 -88.51 164.18 -38.92 181.56 2.36C348.56 388.71 72.27 326 197.11 669.26C107.77 315.92 328.8 312.06 205.98 47.26C174.86 -10.25 161.06 -82.9 150.32 -131.64Z" fill="#F7EFE2"/>
<path d="M246.95 -138.2C139.5 -229.4 226.6 138.96 263.27 -66.47C264.62 -87.49 262.88 -118.9 246.95 -138.2ZM231.7 -6.2H231.87C231.65 -5.95999 231.59 -5.97 231.7 -6.17V-6.2ZM258.15 -64.11C247.61 57.7 181.72 -61.11 203.52 -126.11C203.98 -169.84 267.03 -146.5 258.15 -64.11Z" fill="#F7EFE2"/>
<path d="M288.52 -115.52C290.35 -122.75 256.15 -183.83 268.62 -149.71C316.72 -66.33 271.45 -10.9 253.01 55.74C208.82 1.31 173.93 -62.11 173.45 -136.84C156.82 -64.84 209.57 6.33999 254.12 64.78C273.26 11.6 308.33 -51.07 288.52 -115.52Z" fill="#F7EFE2"/>
<path d="M308.72 -144.68C315.86 -87.99 323.72 -24.97 306.22 33.16C246.97 153.7 260.7 170.16 289.22 278.26C274.38 447.25 412.45 539.6 343.97 682.87C426.73 546.56 268.02 417.56 293.83 272.92C235.02 86.01 298.13 119.6 318.83 -0.920006C321.8 -49.4 327.19 -111.41 308.72 -144.68Z" fill="#F7EFE2"/>
<path d="M116.93 453.02C26.9 201.73 150.28 -82.4 79.45 -138.47C110.98 -72.25 97.38 -2.69 86.81 69.53C52.56 549.67 143.63 258.23 101.28 689.21C105.78 632.1 118.84 529.92 116.93 453.02Z" fill="#F7EFE2"/>
<path d="M51.18 -147.12C91.18 -39.33 53.18 75.31 43.39 187.61C40.39 476.75 117.87 447.97 63.59 682.05C128.72 450.68 40.88 382.64 45.36 256.97C41.69 113.3 109.85 -60.17 51.18 -147.12Z" fill="#F7EFE2"/>
<path d="M163.69 262.85C154.69 266.85 135.51 438.33 89.69 181.64C73.58 172.97 130.63 447.15 163.69 262.85Z" fill="#F7EFE2"/>
<path d="M149.71 338.27C138.71 347.42 136.22 366.38 128.29 383.09C125.01 385.82 112.51 299.35 98.24 313.39C120.77 329.44 116.16 457.45 149.71 338.27Z" fill="#F7EFE2"/>
<path d="M391.35 554.01C368.74 428.68 325.35 303.5 295.35 175.51C291.18 120.69 335.72 88.36 344.4 31.45C367.69 -50.38 314.45 -182.26 324.87 -131.26C398.97 192.05 218.01 -1.25998 334.23 347.1C364.06 456.47 404.16 568.35 384.45 686.19C400.7 652.55 393.45 596.84 391.35 554.01Z" fill="#F7EFE2"/>
<path d="M278.45 507.01C237.37 362.57 242.07 644.82 280.21 578.17C284.69 557.24 284.27 531.49 278.45 507.01ZM278.08 555.1C274.94 633.87 242.41 530.48 257.7 473.25C271.62 481.51 278.85 527.66 278.08 555.1Z" fill="#F7EFE2"/>
<path d="M310.63 555.92C292.53 448.64 227.63 383.14 228.02 547.92C227.1 559.63 294.05 736.53 310.63 555.92ZM302.97 589.1C247.97 768.33 192.04 303.89 291.36 504.39C298.13 529.28 313.13 557.74 302.97 589.1Z" fill="#F7EFE2"/>
<path d="M334.72 565.97C314 415.97 196.55 321.97 209.61 547.64C254.66 777.96 346.45 661.45 334.72 565.97ZM328.77 614.68C265.56 808.8 163.38 481.79 240.05 420.1C252.65 385.51 350.69 520.41 328.77 614.68Z" fill="#F7EFE2"/>
<path d="M320.28 475.57C285.74 415.81 258.45 296.1 244.45 327.1C167.58 430.37 187.1 570.47 231.96 683.44C200.45 551.8 168.36 434 251.03 327.03C272.88 368.39 292.53 450.53 320.28 475.57Z" fill="#F7EFE2"/>
<path d="M405.76 140.4C387.9 -29.8 308.45 83.74 328.35 189C364.11 325.71 420.89 228.1 405.76 140.4ZM401.38 178.1C402.09 286.04 337.3 265.56 329.98 162.33C325.45 132.1 352.25 13.1 386.26 77.1C400.31 108.87 401.98 139.64 401.38 178.1Z" fill="#F7EFE2"/>
<path d="M380.32 146.64C383.99 121.64 363.95 37.28 342.71 138.03C346.45 230.1 379.52 244.88 380.32 146.64ZM371.17 192.81C369.17 195.74 372.97 198.39 365.11 210.4C315.45 120.89 392.59 17.93 371.17 192.81Z" fill="#F7EFE2"/>
<path d="M436.61 120.03C432.93 92.38 386.28 -1.10999 367.61 23.33C470.15 73.24 438.95 271.1 382.45 347.27C364.26 343.39 364.3 304.91 354.45 302.57C388.84 465.25 460.45 164.35 436.61 120.03Z" fill="#F7EFE2"/>
<path d="M472.16 286.31C517.6 133.24 376.45 3.17 358.35 -145.02C353.14 -53.18 424.71 25.61 452.85 114.98C529.38 368.44 347.39 363.98 448.39 709.78C416.62 486.91 414.17 422.16 472.16 286.31Z" fill="#F7EFE2"/>
<path d="M29.73 -40.9C7.45 -245.9 -47.86 -58.72 -27.12 10.76C-19.55 73.34 44.24 47.3 29.73 -40.9ZM19.94 21.89C-28.45 102.36 -48.34 -103.4 4.13 -129.64C18.45 -84.02 35.73 -30.75 19.94 21.89Z" fill="#F7EFE2"/>
<path d="M14.1201 -37.68C3.25006 -142.84 -33.4299 -14.68 4.83006 -1.50001C16.6101 -4.7 19.5501 -22.57 14.1201 -37.68ZM10.6101 -12.68C-13.2099 17.52 -7.87994 -94.06 3.21006 -63.18C4.12006 -46.78 10.7001 -56.51 10.6101 -12.69V-12.68Z" fill="#F7EFE2"/>
<path d="M38.3 39.1C16.7 298.1 -102.55 -79.69 -59.65 -136.9C-61.09 -134.73 -49.71 -149.85 -59.43 -148.05C-121.92 -49.1 34.75 300.34 38.3 39.1Z" fill="#F7EFE2"/>
<path d="M22.4501 249.1C10.8301 196.1 -36.1999 120.99 -56.8199 81.99C-49.5899 115.19 -25.9899 151.46 -8.11995 182.56C52.1901 282.1 -4.19994 341.28 -24.8299 415.73C-49.5499 497.58 -55.5499 581.31 -43.2899 667.73C-44.4299 675.54 -33.2899 713.85 -35.8999 682.15C-76.1799 410.58 40.1601 352.39 22.4501 249.1Z" fill="#F7EFE2"/>
<path d="M52.9601 502.34C23.9601 239.34 -46.0399 639.97 7.65005 674.02C45.9 691.65 58.84 525.71 52.9601 502.34ZM46.9601 572.64C-3.03994 843.32 -32.9099 472.91 28.5701 416.64C45.9301 462.97 53.4501 518.7 46.9201 572.64H46.9601Z" fill="#F7EFE2"/>
<path d="M31.8299 507.29C20.6599 430.95 3.05994 579.89 25.6599 578.74C44.6399 564.55 41.5699 534.1 31.8299 507.29ZM32.5199 559.87C15.3699 590.08 19.6099 552.87 24.7599 501.12C27.6399 520.86 38.7499 520.49 32.5199 559.87Z" fill="#F7EFE2"/>
</g>
<defs>
<clipPath id="clip0">
<rect x="-77" y="-160" width="600.81" height="869.81" fill="white"/>
</clipPath>
</defs>
</svg>
